<?xml version="1.0" encoding="utf-8"?>
<!-- Generator: Adobe Illustrator 17.0.0, SVG Export Plug-In . SVG Version: 6.00 Build 0)  -->
<!DOCTYPE svg PUBLIC "-//W3C//DTD SVG 1.1//EN" "http://www.w3.org/Graphics/SVG/1.1/DTD/svg11.dtd">
<svg version="1.1" xmlns="http://www.w3.org/2000/svg" xmlns:xlink="http://www.w3.org/1999/xlink" x="0px" y="0px" width="500px"
	 height="100px" viewBox="0 0 500 100" enable-background="new 0 0 500 100" xml:space="preserve">
<g id="Layer_1">
</g>
<g id="Layer_2">
	<g>
		<path fill="#FFFFFF" d="M119.327,65.417L108.589,95.95h-6.34l31.568-87.202h5.952l31.439,87.202h-6.339l-10.997-30.533H119.327z
			 M151.931,60.241l-10.609-29.11c-2.07-6.081-3.235-10.48-4.528-15.396h-0.259c-1.294,5.046-2.717,9.574-4.528,15.138
			l-10.739,29.369H151.931z"/>
		<path fill="#FFFFFF" d="M181.171,3.961h6.21v41.531h0.259c4.14-8.021,11.773-13.067,22.771-13.067
			c15.655,0,26.523,13.197,26.523,31.827c0,22.124-14.103,33.121-27.687,33.121c-10.092,0-17.337-4.14-22.253-12.55h-0.259
			l-0.518,11.127h-5.563c0.388-4.398,0.518-9.833,0.518-14.49V3.961z M187.381,72.015c0,1.424,0.129,2.977,0.518,4.528
			c2.717,9.445,10.738,15.655,20.442,15.655c14.232,0,22.383-11.645,22.383-27.816c0-14.232-7.763-26.782-21.865-26.782
			c-9.057,0-17.725,6.21-20.701,16.561c-0.388,1.552-0.776,3.234-0.776,5.434V72.015z"/>
		<path fill="#FFFFFF" d="M272.771,97.373c-16.043,0-28.463-12.55-28.463-31.956c0-21.219,13.972-32.992,29.369-32.992
			c17.207,0,28.852,12.938,28.852,31.957c0,23.029-15.913,32.991-29.627,32.991H272.771z M273.158,92.198
			c12.938,0,23.159-11.645,23.159-27.558c0-11.386-6.339-27.041-22.771-27.041c-15.914,0-23.03,14.102-23.03,27.428
			c0,15.525,9.833,27.17,22.512,27.17H273.158z"/>
		<path fill="#FFFFFF" d="M360.361,80.812c0,5.435,0.129,10.351,0.518,15.138h-5.822l-0.389-11.127h-0.259
			c-3.104,5.822-10.221,12.55-21.218,12.55c-7.893,0-21.219-4.011-21.219-27.428V33.848h6.211V68.78
			c0,13.456,4.14,23.159,16.431,23.159c9.057,0,15.655-6.34,18.372-12.55c0.646-1.94,1.164-4.398,1.164-6.857V33.848h6.211V80.812z"
			/>
		<path fill="#FFFFFF" d="M383.908,20.134v13.714h17.725v5.046h-17.725v40.367c0,7.892,2.458,12.808,9.057,12.808
			c3.234,0,5.562-0.388,7.115-0.905l0.776,4.658c-2.069,0.775-4.916,1.423-8.669,1.423c-4.527,0-8.279-1.423-10.608-4.27
			c-2.847-3.234-3.882-8.539-3.882-14.879V38.894h-10.479v-5.046h10.479V22.463L383.908,20.134z"/>
	</g>
</g>
</svg>
