<?xml version="1.0" encoding="utf-8"?>
<!-- Generator: Adobe Illustrator 17.0.0, SVG Export Plug-In . SVG Version: 6.00 Build 0)  -->
<!DOCTYPE svg PUBLIC "-//W3C//DTD SVG 1.1//EN" "http://www.w3.org/Graphics/SVG/1.1/DTD/svg11.dtd">
<svg version="1.1" xmlns="http://www.w3.org/2000/svg" xmlns:xlink="http://www.w3.org/1999/xlink" x="0px" y="0px"
	 width="234.667px" height="34.75px" viewBox="0 0 234.667 34.75" enable-background="new 0 0 234.667 34.75" xml:space="preserve">
<g id="Layer_1">
</g>
<g id="Layer_2">
	<g>
		<path fill="#FFFFFF" d="M37.252,17.821l-2.987,8.495h-1.764l8.783-24.261h1.656l8.747,24.261h-1.764l-3.06-8.495H37.252z
			 M46.324,16.382l-2.952-8.099c-0.576-1.692-0.9-2.916-1.26-4.284H42.04c-0.36,1.404-0.756,2.664-1.26,4.211l-2.988,8.171H46.324z"
			/>
		<path fill="#FFFFFF" d="M53.417,13.178c0-1.584-0.036-2.772-0.144-4.14h1.62L55,12.134h0.072c0.936-1.944,3.132-3.492,5.939-3.492
			c1.656,0,6.047,0.828,6.047,7.307v10.367h-1.728V16.094c0-3.167-1.224-6.011-4.787-6.011c-2.412,0-4.5,1.728-5.184,3.996
			c-0.108,0.396-0.216,0.972-0.216,1.512v10.727h-1.728V13.178z"/>
		<path fill="#FFFFFF" d="M83.799,23.797c0,4.427-0.936,6.622-2.376,7.99c-1.584,1.512-3.923,2.052-5.867,2.052
			c-1.98,0-4.175-0.504-5.507-1.512l0.612-1.368c1.224,0.792,2.916,1.44,5.147,1.44c3.636,0,6.263-1.872,6.263-6.983v-2.447h-0.072
			c-0.9,1.764-2.916,3.348-6.011,3.348c-4.355,0-7.416-3.779-7.416-8.495c0-6.011,3.96-9.179,7.775-9.179
			c3.419,0,5.111,1.872,5.831,3.312h0.072l0.108-2.916h1.583c-0.108,1.296-0.144,2.664-0.144,4.463V23.797z M82.071,15.698
			c0-0.648-0.036-1.188-0.216-1.692c-0.72-2.052-2.52-3.923-5.363-3.923c-3.672,0-6.191,2.987-6.191,7.559
			c0,3.887,2.052,7.234,6.119,7.234c2.304,0,4.463-1.439,5.363-3.887c0.18-0.576,0.288-1.225,0.288-1.836V15.698z"/>
		<path fill="#FFFFFF" d="M86.572,14.222c0-1.728-0.036-3.492-0.144-5.184h1.583l0.072,3.492h0.108
			c0.756-2.196,2.556-3.888,4.896-3.888c0.252,0,0.504,0.036,0.72,0.072v1.62c-0.252-0.036-0.504-0.036-0.828-0.036
			c-2.375,0-4.067,2.052-4.535,4.823c-0.108,0.504-0.144,1.08-0.144,1.656v9.539h-1.728V14.222z"/>
		<path fill="#FFFFFF" d="M97.084,9.039l4.535,11.302c0.468,1.224,0.936,2.628,1.26,3.708h0.072c0.36-1.044,0.792-2.412,1.332-3.815
			l4.211-11.195h1.836l-5.183,12.886c-2.088,5.363-3.564,8.566-5.832,10.546c-1.368,1.152-2.627,1.656-3.023,1.8l-0.54-1.439
			c0.864-0.324,1.98-0.936,3.023-1.908c0.864-0.863,2.016-2.303,2.88-4.354c0.144-0.36,0.216-0.576,0.216-0.756
			c0-0.145-0.072-0.396-0.216-0.756L95.249,9.039H97.084z"/>
		<path fill="#FFFFFF" d="M118.971,2.416c1.368-0.324,3.096-0.54,4.896-0.54c3.024,0,5.003,0.648,6.335,2.016
			c1.008,0.972,1.512,2.268,1.512,3.959c0,2.484-1.764,4.572-4.176,5.399v0.108c2.052,0.468,5.147,2.232,5.147,6.191
			c0,1.979-0.72,3.492-1.8,4.643c-1.62,1.62-4.247,2.304-7.703,2.304c-1.835,0-3.239-0.144-4.211-0.18V2.416z M120.699,12.71h3.527
			c3.527,0,5.724-2.087,5.724-4.751c0-3.419-2.592-4.643-6.191-4.643c-1.584,0-2.52,0.108-3.06,0.252V12.71z M120.699,24.876
			c0.72,0.145,1.691,0.181,2.987,0.181c3.708,0,7.199-1.332,7.199-5.471c0-3.816-3.275-5.472-7.127-5.472h-3.06V24.876z"/>
		<path fill="#FFFFFF" d="M142.37,26.712c-4.463,0-7.919-3.491-7.919-8.891c0-5.903,3.888-9.179,8.171-9.179
			c4.788,0,8.027,3.6,8.027,8.891c0,6.407-4.428,9.178-8.243,9.178H142.37z M142.479,25.272c3.6,0,6.443-3.24,6.443-7.667
			c0-3.167-1.764-7.523-6.336-7.523c-4.427,0-6.407,3.923-6.407,7.631c0,4.319,2.736,7.559,6.264,7.559H142.479z"/>
		<path fill="#FFFFFF" d="M152.344,9.039l4.031,10.726c0.684,1.692,1.224,3.132,1.691,4.607h0.072
			c0.468-1.439,1.116-2.951,1.764-4.607l4.104-10.726h1.8l-7.019,17.278h-1.513l-6.767-17.278H152.344z"/>
		<path fill="#FFFFFF" d="M168.688,5.583c-0.792,0-1.332-0.684-1.332-1.476c0-0.792,0.611-1.512,1.403-1.512
			s1.368,0.684,1.368,1.512c0,0.792-0.54,1.476-1.404,1.476H168.688z M167.896,26.316V9.039h1.728v17.278H167.896z"/>
		<path fill="#FFFFFF" d="M172.72,13.178c0-1.584-0.036-2.772-0.145-4.14h1.62l0.107,3.096h0.072
			c0.936-1.944,3.132-3.492,5.939-3.492c1.655,0,6.047,0.828,6.047,7.307v10.367h-1.728V16.094c0-3.167-1.224-6.011-4.787-6.011
			c-2.412,0-4.5,1.728-5.184,3.996c-0.108,0.396-0.216,0.972-0.216,1.512v10.727h-1.728V13.178z"/>
		<path fill="#FFFFFF" d="M190.287,17.498c0,5.507,3.023,7.703,6.587,7.703c2.52,0,3.815-0.504,4.787-0.972l0.433,1.332
			c-0.648,0.359-2.412,1.115-5.436,1.115c-4.968,0-8.063-3.6-8.063-8.674c0-5.759,3.312-9.359,7.775-9.359
			c5.651,0,6.731,5.327,6.731,7.811c0,0.468,0,0.72-0.072,1.044H190.287z M201.302,16.13c0.035-2.412-0.973-6.047-5.147-6.047
			c-3.815,0-5.436,3.383-5.76,6.047H201.302z"/>
	</g>
</g>
</svg>
