<?xml version="1.0" encoding="utf-8"?>
<!-- Generator: Adobe Illustrator 17.0.0, SVG Export Plug-In . SVG Version: 6.00 Build 0)  -->
<!DOCTYPE svg PUBLIC "-//W3C//DTD SVG 1.1//EN" "http://www.w3.org/Graphics/SVG/1.1/DTD/svg11.dtd">
<svg version="1.1" xmlns="http://www.w3.org/2000/svg" xmlns:xlink="http://www.w3.org/1999/xlink" x="0px" y="0px" width="500px"
	 height="100px" viewBox="0 0 500 100" enable-background="new 0 0 500 100" xml:space="preserve">
<g id="Layer_1">
</g>
<g id="Layer_2">
	<g>
		<path fill="#FFFFFF" d="M132.912,92.845c-4.399,2.2-12.809,4.399-23.547,4.399c-21.089,0-41.272-13.456-41.272-44.377
			c0-25.876,16.69-45.413,44.248-45.413c11.126,0,17.596,2.458,20.183,3.752l-1.94,5.175c-4.399-2.199-10.739-3.752-18.113-3.752
			c-23.547,0-37.908,15.267-37.908,40.366c0,23.677,13.456,38.943,36.873,38.943c7.375,0,14.62-1.553,19.666-4.011L132.912,92.845z"
			/>
		<path fill="#FFFFFF" d="M166.81,97.373c-16.043,0-28.463-12.55-28.463-31.956c0-21.219,13.973-32.992,29.369-32.992
			c17.207,0,28.852,12.938,28.852,31.957c0,23.029-15.914,32.991-29.628,32.991H166.81z M167.198,92.198
			c12.938,0,23.159-11.645,23.159-27.558c0-11.386-6.339-27.041-22.771-27.041c-15.914,0-23.03,14.102-23.03,27.428
			c0,15.525,9.833,27.17,22.512,27.17H167.198z"/>
		<path fill="#FFFFFF" d="M203.942,48.727c0-5.692-0.129-9.962-0.517-14.878h5.822l0.388,11.126h0.259
			c3.364-6.986,11.256-12.55,21.348-12.55c5.951,0,21.735,2.976,21.735,26.265V95.95h-6.21V59.206
			c0-11.385-4.399-21.606-17.208-21.606c-8.668,0-16.172,6.21-18.63,14.361c-0.388,1.424-0.776,3.493-0.776,5.435V95.95h-6.21
			V48.727z"/>
		<path fill="#FFFFFF" d="M273.419,20.134v13.714h17.726v5.046h-17.726v40.367c0,7.892,2.458,12.808,9.057,12.808
			c3.234,0,5.563-0.388,7.116-0.905l0.775,4.658c-2.069,0.775-4.916,1.423-8.668,1.423c-4.528,0-8.28-1.423-10.609-4.27
			c-2.846-3.234-3.881-8.539-3.881-14.879V38.894h-10.48v-5.046h10.48V22.463L273.419,20.134z"/>
		<path fill="#FFFFFF" d="M340.308,81.201c0,4.916,0.13,9.962,0.905,14.749h-5.692l-0.905-8.927h-0.259
			c-3.105,4.787-9.962,10.35-19.925,10.35c-12.55,0-18.242-8.798-18.242-17.078c0-14.36,12.55-23.029,37.908-22.771v-1.682
			c0-6.081-1.164-18.372-15.914-18.243c-5.434,0-11.127,1.423-15.654,4.658l-1.941-4.528c5.693-3.752,12.68-5.305,18.242-5.305
			c17.984,0,21.478,13.456,21.478,24.453V81.201z M334.098,62.7c-13.585-0.389-31.439,1.682-31.439,16.561
			c0,8.927,5.951,12.938,12.42,12.938c10.352,0,16.303-6.34,18.373-12.421c0.518-1.293,0.646-2.717,0.646-3.752V62.7z"/>
		<path fill="#FFFFFF" d="M397.364,93.233c-2.717,1.294-9.187,4.011-18.242,4.011c-17.854,0-29.757-13.067-29.757-31.698
			c0-19.795,13.455-33.121,31.956-33.121c7.634,0,13.974,2.2,16.302,3.881l-2.199,5.046c-2.977-1.811-7.764-3.623-14.62-3.623
			c-16.69,0-25.229,12.679-25.229,27.299c0,16.302,10.222,26.911,24.582,26.911c7.375,0,12.162-2.07,15.526-3.623L397.364,93.233z"
			/>
		<path fill="#FFFFFF" d="M418.97,20.134v13.714h17.726v5.046H418.97v40.367c0,7.892,2.458,12.808,9.057,12.808
			c3.234,0,5.563-0.388,7.116-0.905l0.775,4.658c-2.069,0.775-4.916,1.423-8.668,1.423c-4.528,0-8.28-1.423-10.609-4.27
			c-2.846-3.234-3.881-8.539-3.881-14.879V38.894h-10.48v-5.046h10.48V22.463L418.97,20.134z"/>
	</g>
</g>
</svg>
