<?xml version="1.0" encoding="utf-8"?>
<!-- Generator: Adobe Illustrator 17.0.0, SVG Export Plug-In . SVG Version: 6.00 Build 0)  -->
<!DOCTYPE svg PUBLIC "-//W3C//DTD SVG 1.1//EN" "http://www.w3.org/Graphics/SVG/1.1/DTD/svg11.dtd">
<svg version="1.1" xmlns="http://www.w3.org/2000/svg" xmlns:xlink="http://www.w3.org/1999/xlink" x="0px" y="0px" width="215px"
	 height="33.417px" viewBox="0 0 215 33.417" enable-background="new 0 0 215 33.417" xml:space="preserve">
<g id="Layer_1">
</g>
<g id="Layer_2">
	<g>
		<path fill="#FFFFFF" d="M52.761,24.702c-1.224,0.612-3.563,1.224-6.551,1.224c-5.867,0-11.482-3.743-11.482-12.346
			c0-7.199,4.643-12.635,12.31-12.635c3.096,0,4.896,0.684,5.616,1.044l-0.54,1.44c-1.224-0.612-2.988-1.044-5.04-1.044
			c-6.551,0-10.546,4.248-10.546,11.23c0,6.587,3.743,10.834,10.258,10.834c2.052,0,4.068-0.432,5.472-1.116L52.761,24.702z"/>
		<path fill="#FFFFFF" d="M54.814,13.472c0-1.728-0.036-3.492-0.144-5.184h1.583l0.072,3.492h0.108
			c0.756-2.196,2.556-3.888,4.896-3.888c0.252,0,0.504,0.036,0.72,0.072v1.62c-0.252-0.036-0.504-0.036-0.828-0.036
			c-2.375,0-4.067,2.052-4.535,4.823c-0.108,0.504-0.144,1.08-0.144,1.656v9.539h-1.728V13.472z"/>
		<path fill="#FFFFFF" d="M70.294,25.962c-4.464,0-7.919-3.491-7.919-8.891c0-5.903,3.888-9.179,8.171-9.179
			c4.787,0,8.027,3.6,8.027,8.891c0,6.407-4.427,9.178-8.243,9.178H70.294z M70.402,24.522c3.6,0,6.443-3.24,6.443-7.667
			c0-3.167-1.764-7.523-6.335-7.523c-4.428,0-6.407,3.923-6.407,7.631c0,4.319,2.736,7.559,6.263,7.559H70.402z"/>
		<path fill="#FFFFFF" d="M80.951,13.796c0-2.16-0.036-3.852-0.144-5.507h1.656l0.108,3.275h0.072
			c1.26-2.268,3.384-3.671,6.407-3.671c4.428,0,7.415,3.671,7.415,8.747c0,6.155-3.671,9.322-7.847,9.322
			c-2.484,0-4.68-1.115-5.868-3.203h-0.072v9.935h-1.728V13.796z M82.679,18.763c0,0.468,0.036,0.936,0.144,1.368
			c0.72,2.664,3.023,4.392,5.687,4.392c3.96,0,6.228-3.204,6.228-7.811c0-3.887-2.16-7.379-6.083-7.379
			c-2.52,0-4.967,1.728-5.723,4.571c-0.108,0.468-0.252,1.008-0.252,1.476V18.763z"/>
		<path fill="#FFFFFF" d="M122.672,24.702c-1.224,0.612-3.563,1.224-6.552,1.224c-5.867,0-11.482-3.743-11.482-12.346
			c0-7.199,4.643-12.635,12.31-12.635c3.096,0,4.896,0.684,5.615,1.044l-0.54,1.44c-1.224-0.612-2.987-1.044-5.039-1.044
			c-6.551,0-10.546,4.248-10.546,11.23c0,6.587,3.743,10.834,10.258,10.834c2.052,0,4.067-0.432,5.472-1.116L122.672,24.702z"/>
		<path fill="#FFFFFF" d="M125.446,13.472c0-1.728-0.036-3.492-0.145-5.184h1.584l0.072,3.492h0.107
			c0.756-2.196,2.556-3.888,4.896-3.888c0.252,0,0.504,0.036,0.72,0.072v1.62c-0.252-0.036-0.504-0.036-0.827-0.036
			c-2.376,0-4.067,2.052-4.536,4.823c-0.107,0.504-0.144,1.08-0.144,1.656v9.539h-1.728V13.472z"/>
		<path fill="#FFFFFF" d="M146.36,24.811c-0.756,0.359-2.556,1.115-5.075,1.115c-4.968,0-8.279-3.635-8.279-8.818
			c0-5.507,3.744-9.215,8.891-9.215c2.124,0,3.888,0.612,4.536,1.08l-0.612,1.404c-0.828-0.504-2.159-1.008-4.067-1.008
			c-4.644,0-7.02,3.527-7.02,7.595c0,4.536,2.844,7.487,6.84,7.487c2.052,0,3.384-0.576,4.319-1.008L146.36,24.811z"/>
		<path fill="#FFFFFF" d="M149.242-0.026h1.728v25.593h-1.728V-0.026z"/>
		<path fill="#FFFFFF" d="M155.146,16.748c0,5.507,3.023,7.703,6.587,7.703c2.52,0,3.815-0.504,4.787-0.972l0.433,1.332
			c-0.648,0.359-2.412,1.115-5.436,1.115c-4.968,0-8.063-3.6-8.063-8.674c0-5.759,3.312-9.359,7.775-9.359
			c5.651,0,6.731,5.327,6.731,7.811c0,0.468,0,0.72-0.072,1.044H155.146z M166.161,15.38c0.035-2.412-0.973-6.047-5.147-6.047
			c-3.815,0-5.436,3.383-5.76,6.047H166.161z"/>
		<path fill="#FFFFFF" d="M170.373,23.299c0.937,0.575,2.34,1.188,3.888,1.188c2.736,0,4.031-1.476,4.031-3.275
			c0-1.908-1.151-2.916-3.635-3.923c-2.844-1.08-4.392-2.628-4.392-4.715c0-2.52,1.979-4.68,5.327-4.68
			c1.584,0,2.952,0.468,3.815,1.08l-0.647,1.404c-0.612-0.432-1.729-1.044-3.456-1.044c-2.195,0-3.348,1.404-3.348,2.987
			c0,1.8,1.224,2.556,3.563,3.528c2.808,1.116,4.464,2.52,4.464,5.147c0,2.951-2.304,4.931-5.831,4.931
			c-1.656,0-3.24-0.468-4.392-1.188L170.373,23.299z"/>
	</g>
</g>
</svg>
