<?xml version="1.0" encoding="utf-8"?>
<!-- Generator: Adobe Illustrator 17.0.0, SVG Export Plug-In . SVG Version: 6.00 Build 0)  -->
<!DOCTYPE svg PUBLIC "-//W3C//DTD SVG 1.1//EN" "http://www.w3.org/Graphics/SVG/1.1/DTD/svg11.dtd">
<svg version="1.1" xmlns="http://www.w3.org/2000/svg" xmlns:xlink="http://www.w3.org/1999/xlink" x="0px" y="0px" width="215px"
	 height="26.25px" viewBox="0 0 215 26.25" enable-background="new 0 0 215 26.25" xml:space="preserve">
<g id="Layer_1">
</g>
<g id="Layer_2">
	<g>
		<path fill="#FFFFFF" d="M39.785,1.056h11.987v1.439H41.513v9.647h9.431v1.44h-9.431v11.734h-1.728V1.056z"/>
		<path fill="#FFFFFF" d="M54.509-0.276h1.728v25.593h-1.728V-0.276z"/>
		<path fill="#FFFFFF" d="M71.643,21.213c0,1.367,0.036,2.771,0.252,4.104h-1.583l-0.252-2.484h-0.072
			c-0.864,1.332-2.771,2.88-5.543,2.88c-3.491,0-5.075-2.447-5.075-4.751c0-3.996,3.492-6.407,10.547-6.335v-0.468
			c0-1.692-0.324-5.111-4.428-5.075c-1.512,0-3.096,0.396-4.355,1.296l-0.54-1.26c1.584-1.044,3.528-1.476,5.076-1.476
			c5.003,0,5.975,3.744,5.975,6.803V21.213z M69.916,16.065c-3.78-0.108-8.747,0.468-8.747,4.607c0,2.483,1.656,3.6,3.456,3.6
			c2.879,0,4.536-1.764,5.111-3.456c0.144-0.359,0.18-0.756,0.18-1.044V16.065z"/>
		<path fill="#FFFFFF" d="M74.524,23.049c0.936,0.575,2.34,1.188,3.887,1.188c2.736,0,4.032-1.476,4.032-3.275
			c0-1.908-1.152-2.916-3.636-3.923c-2.843-1.08-4.391-2.628-4.391-4.715c0-2.52,1.979-4.68,5.327-4.68
			c1.584,0,2.952,0.468,3.815,1.08l-0.648,1.404c-0.612-0.432-1.728-1.044-3.456-1.044c-2.196,0-3.348,1.404-3.348,2.987
			c0,1.8,1.224,2.556,3.564,3.528c2.808,1.116,4.463,2.52,4.463,5.147c0,2.951-2.304,4.931-5.832,4.931
			c-1.656,0-3.239-0.468-4.391-1.188L74.524,23.049z"/>
		<path fill="#FFFFFF" d="M86.692-0.276h1.728v11.411h0.072c0.504-0.972,1.332-1.872,2.34-2.484s2.196-1.008,3.492-1.008
			c1.62,0,6.011,0.828,6.011,7.271v10.403h-1.728V15.094c0-3.096-1.224-5.939-4.751-5.939c-2.448,0-4.463,1.764-5.219,3.888
			c-0.18,0.54-0.216,1.008-0.216,1.728v10.547h-1.728V-0.276z"/>
		<path fill="#FFFFFF" d="M110.596,22.652c1.368,0.936,3.275,1.584,5.291,1.584c3.636,0,5.867-2.052,5.867-5.039
			c0-2.7-1.403-4.319-4.931-5.651c-3.888-1.404-6.228-3.419-6.228-6.695c0-3.563,2.916-6.155,7.055-6.155
			c2.269,0,3.996,0.576,4.824,1.116l-0.648,1.476c-0.647-0.468-2.195-1.152-4.283-1.152c-3.924,0-5.255,2.52-5.255,4.428
			c0,2.664,1.547,4.031,5.04,5.399c3.995,1.62,6.119,3.456,6.119,7.055c0,3.528-2.52,6.659-7.703,6.659
			c-2.088,0-4.536-0.684-5.795-1.619L110.596,22.652z"/>
		<path fill="#FFFFFF" d="M129.171,4.223v3.815h4.932v1.404h-4.932v11.23c0,2.195,0.685,3.563,2.52,3.563
			c0.9,0,1.548-0.108,1.98-0.252l0.216,1.296c-0.576,0.216-1.368,0.396-2.412,0.396c-1.26,0-2.304-0.396-2.951-1.188
			c-0.792-0.9-1.08-2.376-1.08-4.14V9.442h-2.916V8.039h2.916V4.871L129.171,4.223z"/>
		<path fill="#FFFFFF" d="M147.422,21.213c0,1.367,0.035,2.771,0.252,4.104h-1.584l-0.252-2.484h-0.072
			c-0.864,1.332-2.771,2.88-5.543,2.88c-3.492,0-5.075-2.447-5.075-4.751c0-3.996,3.491-6.407,10.546-6.335v-0.468
			c0-1.692-0.323-5.111-4.427-5.075c-1.512,0-3.096,0.396-4.355,1.296l-0.54-1.26c1.584-1.044,3.527-1.476,5.075-1.476
			c5.003,0,5.976,3.744,5.976,6.803V21.213z M145.693,16.065c-3.779-0.108-8.747,0.468-8.747,4.607c0,2.483,1.656,3.6,3.456,3.6
			c2.88,0,4.535-1.764,5.111-3.456c0.144-0.359,0.18-0.756,0.18-1.044V16.065z"/>
		<path fill="#FFFFFF" d="M162.938,24.561c-0.756,0.359-2.556,1.115-5.075,1.115c-4.968,0-8.279-3.635-8.279-8.818
			c0-5.507,3.744-9.215,8.892-9.215c2.123,0,3.887,0.612,4.535,1.08l-0.612,1.404c-0.828-0.504-2.159-1.008-4.067-1.008
			c-4.644,0-7.02,3.527-7.02,7.595c0,4.536,2.844,7.487,6.84,7.487c2.052,0,3.384-0.576,4.319-1.008L162.938,24.561z"/>
		<path fill="#FFFFFF" d="M167.511,16.354h0.072c0.432-0.54,1.115-1.332,1.655-1.908l6.119-6.407h2.088l-6.983,7.163l7.955,10.115
			h-2.087l-7.056-9.071l-1.764,1.872v7.199h-1.728V-0.276h1.728V16.354z"/>
	</g>
</g>
</svg>
