<?xml version="1.0" encoding="utf-8"?>
<!-- Generator: Adobe Illustrator 17.0.0, SVG Export Plug-In . SVG Version: 6.00 Build 0)  -->
<!DOCTYPE svg PUBLIC "-//W3C//DTD SVG 1.1//EN" "http://www.w3.org/Graphics/SVG/1.1/DTD/svg11.dtd">
<svg version="1.1" xmlns="http://www.w3.org/2000/svg" xmlns:xlink="http://www.w3.org/1999/xlink" x="0px" y="0px"
	 width="234.667px" height="34.75px" viewBox="0 0 234.667 34.75" enable-background="new 0 0 234.667 34.75" xml:space="preserve">
<g id="Layer_1">
</g>
<g id="Layer_2">
	<g>
		<path fill="#FFFFFF" d="M25.319,2.056v10.69h13.39V2.056h1.728v24.261h-1.728v-12.13h-13.39v12.13h-1.728V2.056H25.319z"/>
		<path fill="#FFFFFF" d="M44.542,17.498c0,5.507,3.024,7.703,6.587,7.703c2.52,0,3.815-0.504,4.787-0.972l0.432,1.332
			c-0.648,0.359-2.412,1.115-5.436,1.115c-4.967,0-8.063-3.6-8.063-8.674c0-5.759,3.312-9.359,7.775-9.359
			c5.651,0,6.731,5.327,6.731,7.811c0,0.468,0,0.72-0.072,1.044H44.542z M55.557,16.13c0.036-2.412-0.972-6.047-5.147-6.047
			c-3.815,0-5.435,3.383-5.759,6.047H55.557z"/>
		<path fill="#FFFFFF" d="M71.252,22.213c0,1.367,0.036,2.771,0.252,4.104h-1.583l-0.252-2.484h-0.072
			c-0.864,1.332-2.771,2.88-5.543,2.88c-3.491,0-5.075-2.447-5.075-4.751c0-3.996,3.492-6.407,10.547-6.335v-0.468
			c0-1.692-0.324-5.111-4.428-5.075c-1.512,0-3.096,0.396-4.355,1.296l-0.54-1.26c1.584-1.044,3.528-1.476,5.076-1.476
			c5.003,0,5.975,3.744,5.975,6.803V22.213z M69.525,17.065c-3.78-0.108-8.747,0.468-8.747,4.607c0,2.483,1.656,3.6,3.456,3.6
			c2.879,0,4.536-1.764,5.111-3.456c0.144-0.359,0.18-0.756,0.18-1.044V17.065z"/>
		<path fill="#FFFFFF" d="M74.854,0.724h1.728v25.593h-1.728V0.724z"/>
		<path fill="#FFFFFF" d="M83.602,5.223v3.815h4.931v1.404h-4.931v11.23c0,2.195,0.684,3.563,2.52,3.563
			c0.9,0,1.548-0.108,1.979-0.252l0.216,1.296c-0.576,0.216-1.368,0.396-2.412,0.396c-1.26,0-2.304-0.396-2.952-1.188
			c-0.792-0.9-1.08-2.376-1.08-4.14V10.442h-2.916V9.039h2.916V5.871L83.602,5.223z"/>
		<path fill="#FFFFFF" d="M91.089,0.724h1.728v11.411h0.072c0.504-0.972,1.332-1.872,2.34-2.484s2.196-1.008,3.492-1.008
			c1.62,0,6.011,0.828,6.011,7.271v10.403h-1.728V16.094c0-3.096-1.224-5.939-4.751-5.939c-2.448,0-4.463,1.764-5.219,3.888
			c-0.18,0.54-0.216,1.008-0.216,1.728v10.547h-1.728V0.724z"/>
		<path fill="#FFFFFF" d="M120.319,25.561c-0.756,0.359-2.556,1.115-5.075,1.115c-4.967,0-8.279-3.635-8.279-8.818
			c0-5.507,3.744-9.215,8.891-9.215c2.124,0,3.888,0.612,4.536,1.08l-0.612,1.404c-0.828-0.504-2.16-1.008-4.067-1.008
			c-4.644,0-7.019,3.527-7.019,7.595c0,4.536,2.844,7.487,6.839,7.487c2.052,0,3.383-0.576,4.319-1.008L120.319,25.561z"/>
		<path fill="#FFFFFF" d="M133.964,22.213c0,1.367,0.035,2.771,0.252,4.104h-1.584l-0.252-2.484h-0.072
			c-0.864,1.332-2.771,2.88-5.543,2.88c-3.492,0-5.076-2.447-5.076-4.751c0-3.996,3.492-6.407,10.546-6.335v-0.468
			c0-1.692-0.323-5.111-4.427-5.075c-1.512,0-3.096,0.396-4.356,1.296l-0.54-1.26c1.584-1.044,3.528-1.476,5.076-1.476
			c5.003,0,5.976,3.744,5.976,6.803V22.213z M132.235,17.065c-3.779-0.108-8.747,0.468-8.747,4.607c0,2.483,1.656,3.6,3.456,3.6
			c2.88,0,4.535-1.764,5.111-3.456c0.144-0.359,0.18-0.756,0.18-1.044V17.065z"/>
		<path fill="#FFFFFF" d="M137.529,14.222c0-1.728-0.036-3.492-0.145-5.184h1.584l0.072,3.492h0.107
			c0.756-2.196,2.556-3.888,4.896-3.888c0.252,0,0.504,0.036,0.72,0.072v1.62c-0.252-0.036-0.504-0.036-0.827-0.036
			c-2.376,0-4.067,2.052-4.536,4.823c-0.107,0.504-0.144,1.08-0.144,1.656v9.539h-1.728V14.222z"/>
		<path fill="#FFFFFF" d="M146.781,17.498c0,5.507,3.023,7.703,6.587,7.703c2.52,0,3.815-0.504,4.787-0.972l0.433,1.332
			c-0.648,0.359-2.412,1.115-5.436,1.115c-4.968,0-8.063-3.6-8.063-8.674c0-5.759,3.312-9.359,7.775-9.359
			c5.651,0,6.731,5.327,6.731,7.811c0,0.468,0,0.72-0.072,1.044H146.781z M157.796,16.13c0.035-2.412-0.973-6.047-5.147-6.047
			c-3.815,0-5.436,3.383-5.76,6.047H157.796z"/>
		<path fill="#FFFFFF" d="M162.801,26.712c-0.828,0-1.439-0.756-1.404-1.619c0-0.937,0.612-1.62,1.477-1.62
			c0.863,0,1.439,0.684,1.439,1.62c0,0.863-0.576,1.619-1.476,1.619H162.801z"/>
		<path fill="#FFFFFF" d="M181.159,23.797c0,4.427-0.937,6.622-2.376,7.99c-1.584,1.512-3.924,2.052-5.867,2.052
			c-1.979,0-4.176-0.504-5.508-1.512l0.612-1.368c1.224,0.792,2.916,1.44,5.147,1.44c3.636,0,6.264-1.872,6.264-6.983v-2.447h-0.072
			c-0.9,1.764-2.916,3.348-6.012,3.348c-4.355,0-7.415-3.779-7.415-8.495c0-6.011,3.96-9.179,7.775-9.179
			c3.419,0,5.111,1.872,5.831,3.312h0.072l0.107-2.916h1.584c-0.107,1.296-0.144,2.664-0.144,4.463V23.797z M179.432,15.698
			c0-0.648-0.036-1.188-0.217-1.692c-0.72-2.052-2.52-3.923-5.363-3.923c-3.671,0-6.191,2.987-6.191,7.559
			c0,3.887,2.052,7.234,6.12,7.234c2.304,0,4.463-1.439,5.363-3.887c0.18-0.576,0.288-1.225,0.288-1.836V15.698z"/>
		<path fill="#FFFFFF" d="M191.455,26.712c-4.463,0-7.919-3.491-7.919-8.891c0-5.903,3.888-9.179,8.171-9.179
			c4.788,0,8.027,3.6,8.027,8.891c0,6.407-4.428,9.178-8.243,9.178H191.455z M191.563,25.272c3.6,0,6.443-3.24,6.443-7.667
			c0-3.167-1.764-7.523-6.336-7.523c-4.427,0-6.407,3.923-6.407,7.631c0,4.319,2.736,7.559,6.264,7.559H191.563z"/>
		<path fill="#FFFFFF" d="M201.429,9.039l4.031,10.726c0.684,1.692,1.224,3.132,1.691,4.607h0.072
			c0.468-1.439,1.116-2.951,1.764-4.607l4.104-10.726h1.8l-7.019,17.278h-1.513l-6.767-17.278H201.429z"/>
	</g>
</g>
</svg>
