<?xml version="1.0" encoding="utf-8"?>
<!-- Generator: Adobe Illustrator 17.0.0, SVG Export Plug-In . SVG Version: 6.00 Build 0)  -->
<!DOCTYPE svg PUBLIC "-//W3C//DTD SVG 1.1//EN" "http://www.w3.org/Graphics/SVG/1.1/DTD/svg11.dtd">
<svg version="1.1" xmlns="http://www.w3.org/2000/svg" xmlns:xlink="http://www.w3.org/1999/xlink" x="0px" y="0px"
	 width="650.683px" height="273.027px" viewBox="0 0 650.683 273.027" enable-background="new 0 0 650.683 273.027"
	 xml:space="preserve">
<g id="Layer_2" display="none">
	<rect x="-255.75" y="-221.3" display="inline" fill="#087272" width="1164" height="656"/>
</g>
<g id="Layer_14">
</g>
<g id="Node_JS">
</g>
<g id="Adobe">
</g>
<g id="Wordpress">
</g>
<g id="Web_Tech">
	<g id="Layer_10">
	</g>
</g>
<g id="Layer_11">
</g>
<g id="Globe">
</g>
<g id="Layer_13">
</g>
<g id="Layer_8">
</g>
<g id="Layer_12">
</g>
<g id="Git">
	<g>
		<g>
			<path fill="#FCE2EA" d="M67.111,134.403l-6.562-24.847h1.806l3.613,14.009c0.811,3.207,1.585,6.193,2.064,8.516h0.074
				c0.406-2.322,1.291-5.271,2.286-8.516l4.055-14.009h1.696l3.687,13.898c0.811,3.022,1.622,6.083,2.027,8.626h0.074
				c0.553-2.691,1.364-5.382,2.249-8.553l4.092-13.972h1.806l-7.447,24.847h-1.696l-3.723-14.304
				c-0.996-3.65-1.585-6.083-1.917-8.405h-0.074c-0.405,2.286-1.105,4.755-2.212,8.369l-4.239,14.34H67.111z"/>
			<path fill="#FCE2EA" d="M91.588,125.371c0,5.64,3.097,7.889,6.746,7.889c2.581,0,3.908-0.516,4.903-0.995l0.442,1.364
				c-0.664,0.368-2.47,1.143-5.566,1.143c-5.088,0-8.258-3.687-8.258-8.885c0-5.898,3.392-9.585,7.963-9.585
				c5.788,0,6.894,5.456,6.894,8c0,0.479,0,0.737-0.074,1.069H91.588z M102.869,123.97c0.037-2.47-0.996-6.193-5.272-6.193
				c-3.907,0-5.566,3.466-5.898,6.193H102.869z"/>
			<path fill="#FCE2EA" d="M108.25,108.191h1.77v11.834h0.074c1.18-2.286,3.354-3.724,6.488-3.724c4.461,0,7.558,3.761,7.558,9.069
				c0,6.304-4.019,9.438-7.89,9.438c-2.875,0-4.939-1.18-6.341-3.576h-0.073l-0.147,3.17h-1.585
				c0.111-1.253,0.147-2.802,0.147-4.129V108.191z M110.019,127.583c0,0.405,0.037,0.848,0.147,1.29
				c0.774,2.691,3.06,4.461,5.825,4.461c4.055,0,6.378-3.318,6.378-7.926c0-4.055-2.212-7.631-6.23-7.631
				c-2.581,0-5.051,1.77-5.898,4.719c-0.11,0.442-0.221,0.922-0.221,1.549V127.583z"/>
			<path fill="#FCE2EA" d="M134.679,109.888c1.954-0.295,4.276-0.517,6.82-0.517c4.608,0,7.889,1.069,10.064,3.097
				c2.212,2.028,3.502,4.903,3.502,8.922c0,4.055-1.254,7.373-3.576,9.658c-2.322,2.323-6.156,3.576-10.986,3.576
				c-2.286,0-4.203-0.11-5.825-0.295V109.888z M137.886,131.859c0.812,0.147,1.991,0.184,3.244,0.184
				c6.857,0,10.581-3.834,10.581-10.543c0.037-5.861-3.281-9.585-10.064-9.585c-1.659,0-2.913,0.147-3.761,0.332V131.859z"/>
			<path fill="#FCE2EA" d="M160.15,126.071c0.074,4.387,2.875,6.193,6.12,6.193c2.323,0,3.723-0.405,4.94-0.922l0.553,2.323
				c-1.143,0.516-3.097,1.106-5.935,1.106c-5.493,0-8.774-3.613-8.774-8.995s3.17-9.622,8.368-9.622
				c5.825,0,7.373,5.125,7.373,8.405c0,0.664-0.073,1.18-0.11,1.512H160.15z M169.662,123.749c0.037-2.064-0.848-5.272-4.498-5.272
				c-3.281,0-4.719,3.023-4.977,5.272H169.662z"/>
			<path fill="#FCE2EA" d="M175.447,131.085c0.959,0.627,2.654,1.29,4.276,1.29c2.359,0,3.466-1.18,3.466-2.654
				c0-1.548-0.922-2.396-3.318-3.281c-3.207-1.143-4.719-2.913-4.719-5.05c0-2.876,2.323-5.235,6.157-5.235
				c1.806,0,3.392,0.517,4.387,1.106l-0.812,2.359c-0.7-0.442-1.99-1.032-3.649-1.032c-1.917,0-2.986,1.105-2.986,2.433
				c0,1.475,1.069,2.139,3.392,3.023c3.097,1.18,4.682,2.728,4.682,5.382c0,3.134-2.433,5.346-6.672,5.346
				c-1.954,0-3.761-0.479-5.014-1.217L175.447,131.085z"/>
			<path fill="#FCE2EA" d="M193.179,111.546c0.037,1.106-0.774,1.991-2.064,1.991c-1.143,0-1.954-0.885-1.954-1.991
				c0-1.143,0.848-2.028,2.027-2.028C192.404,109.518,193.179,110.403,193.179,111.546z M189.565,134.403V116.56h3.244v17.843
				H189.565z"/>
			<path fill="#FCE2EA" d="M212.643,116.56c-0.074,1.291-0.147,2.728-0.147,4.903v10.359c0,4.092-0.811,6.599-2.544,8.147
				c-1.732,1.622-4.239,2.138-6.488,2.138c-2.138,0-4.497-0.516-5.935-1.475l0.811-2.47c1.18,0.737,3.023,1.401,5.235,1.401
				c3.318,0,5.751-1.733,5.751-6.23v-1.991h-0.074c-0.995,1.659-2.912,2.986-5.677,2.986c-4.424,0-7.594-3.76-7.594-8.7
				c0-6.046,3.944-9.475,8.037-9.475c3.097,0,4.792,1.622,5.567,3.097h0.073l0.147-2.691H212.643z M209.288,123.601
				c0-0.553-0.037-1.032-0.185-1.475c-0.59-1.88-2.175-3.429-4.534-3.429c-3.097,0-5.309,2.617-5.309,6.746
				c0,3.502,1.77,6.415,5.271,6.415c1.991,0,3.797-1.254,4.498-3.318c0.184-0.553,0.258-1.18,0.258-1.732V123.601z"/>
			<path fill="#FCE2EA" d="M216.732,121.39c0-1.844-0.037-3.355-0.147-4.83h2.876l0.184,2.949h0.074
				c0.885-1.696,2.949-3.355,5.898-3.355c2.47,0,6.304,1.475,6.304,7.595v10.654h-3.244v-10.286c0-2.875-1.069-5.271-4.129-5.271
				c-2.138,0-3.797,1.512-4.35,3.318c-0.147,0.406-0.222,0.958-0.222,1.511v10.728h-3.244V121.39z"/>
			<path fill="#FCE2EA" d="M260.378,134.403c-0.811-0.811-1.548-1.622-2.728-2.802c-2.507,2.396-4.94,3.208-7.558,3.208
				c-4.055,0-7.004-3.06-7.004-6.931c0-3.429,2.138-5.714,4.903-7.336v-0.111c-1.364-1.843-2.138-3.649-2.138-5.419
				c0-2.949,1.991-5.861,5.604-5.861c2.654,0,4.756,1.954,4.756,4.939c0,2.691-1.549,4.682-5.788,6.783v0.111
				c2.544,2.986,5.382,6.193,7.226,8.294c1.217-1.843,1.991-4.276,2.581-7.963h1.659c-0.663,3.981-1.622,6.968-3.244,8.995
				c1.291,1.291,2.47,2.544,3.945,4.092H260.378z M250.535,133.371c2.544,0,4.682-1.18,6.12-2.838
				c-1.401-1.659-4.646-5.161-7.853-8.885c-1.548,0.922-3.944,2.802-3.944,6.009c0,3.318,2.359,5.714,5.64,5.714H250.535z
				 M251.162,110.588c-2.396,0-3.649,1.991-3.649,4.276c0,2.102,0.995,3.613,2.027,5.014c2.986-1.585,5.014-3.097,5.014-5.604
				c0-1.77-0.958-3.687-3.354-3.687H251.162z"/>
			<path fill="#FCE2EA" d="M271.62,109.888c1.954-0.295,4.276-0.517,6.82-0.517c4.608,0,7.89,1.069,10.064,3.097
				c2.212,2.028,3.502,4.903,3.502,8.922c0,4.055-1.253,7.373-3.576,9.658c-2.323,2.323-6.157,3.576-10.986,3.576
				c-2.286,0-4.203-0.11-5.825-0.295V109.888z M274.827,131.859c0.811,0.147,1.99,0.184,3.244,0.184
				c6.856,0,10.58-3.834,10.58-10.543c0.037-5.861-3.281-9.585-10.064-9.585c-1.659,0-2.912,0.147-3.76,0.332V131.859z"/>
			<path fill="#FCE2EA" d="M297.091,126.071c0.074,4.387,2.875,6.193,6.12,6.193c2.322,0,3.724-0.405,4.94-0.922l0.553,2.323
				c-1.143,0.516-3.097,1.106-5.936,1.106c-5.493,0-8.774-3.613-8.774-8.995s3.17-9.622,8.369-9.622
				c5.824,0,7.373,5.125,7.373,8.405c0,0.664-0.074,1.18-0.111,1.512H297.091z M306.603,123.749
				c0.037-2.064-0.848-5.272-4.498-5.272c-3.281,0-4.719,3.023-4.977,5.272H306.603z"/>
			<path fill="#FCE2EA" d="M314.084,116.56l3.502,10.027c0.59,1.622,1.069,3.097,1.438,4.571h0.11
				c0.405-1.475,0.922-2.949,1.512-4.571l3.465-10.027h3.392l-7.004,17.843h-3.097l-6.783-17.843H314.084z"/>
			<path fill="#FCE2EA" d="M331.078,126.071c0.073,4.387,2.875,6.193,6.119,6.193c2.322,0,3.724-0.405,4.939-0.922l0.554,2.323
				c-1.144,0.516-3.097,1.106-5.936,1.106c-5.493,0-8.774-3.613-8.774-8.995s3.171-9.622,8.369-9.622
				c5.824,0,7.373,5.125,7.373,8.405c0,0.664-0.074,1.18-0.111,1.512H331.078z M340.589,123.749
				c0.037-2.064-0.848-5.272-4.497-5.272c-3.281,0-4.719,3.023-4.978,5.272H340.589z"/>
			<path fill="#FCE2EA" d="M346.817,108.228h3.244v26.174h-3.244V108.228z"/>
			<path fill="#FCE2EA" d="M370.742,125.334c0,6.599-4.571,9.475-8.885,9.475c-4.829,0-8.553-3.539-8.553-9.18
				c0-5.972,3.908-9.475,8.848-9.475C367.277,116.154,370.742,119.878,370.742,125.334z M356.586,125.518
				c0,3.907,2.249,6.856,5.42,6.856c3.096,0,5.419-2.912,5.419-6.931c0-3.022-1.512-6.856-5.346-6.856
				S356.586,122.127,356.586,125.518z"/>
			<path fill="#FCE2EA" d="M373.911,122.385c0-2.286-0.074-4.129-0.147-5.825h2.912l0.147,3.06h0.073
				c1.328-2.175,3.429-3.466,6.342-3.466c4.312,0,7.557,3.65,7.557,9.069c0,6.414-3.907,9.585-8.11,9.585
				c-2.359,0-4.424-1.032-5.493-2.802h-0.073v9.695h-3.207V122.385z M377.118,127.141c0,0.479,0.073,0.921,0.147,1.327
				c0.59,2.249,2.544,3.797,4.866,3.797c3.429,0,5.419-2.802,5.419-6.894c0-3.576-1.88-6.636-5.309-6.636
				c-2.212,0-4.276,1.585-4.902,4.018c-0.111,0.406-0.222,0.885-0.222,1.327V127.141z"/>
			<path fill="#FCE2EA" d="M393.964,121.39c0-1.844-0.037-3.355-0.147-4.83h2.838l0.148,2.875h0.11
				c0.995-1.696,2.654-3.281,5.604-3.281c2.433,0,4.276,1.475,5.05,3.576h0.074c0.553-0.995,1.254-1.77,1.99-2.322
				c1.069-0.812,2.249-1.254,3.945-1.254c2.359,0,5.861,1.549,5.861,7.742v10.506h-3.17v-10.101c0-3.429-1.254-5.493-3.871-5.493
				c-1.844,0-3.281,1.364-3.834,2.949c-0.147,0.442-0.258,1.032-0.258,1.622v11.023h-3.171v-10.691c0-2.839-1.253-4.903-3.724-4.903
				c-2.027,0-3.502,1.622-4.018,3.244c-0.185,0.479-0.259,1.032-0.259,1.585v10.765h-3.17V121.39z"/>
			<path fill="#FCE2EA" d="M425.592,126.071c0.073,4.387,2.875,6.193,6.119,6.193c2.322,0,3.724-0.405,4.939-0.922l0.554,2.323
				c-1.144,0.516-3.097,1.106-5.936,1.106c-5.493,0-8.774-3.613-8.774-8.995s3.171-9.622,8.369-9.622
				c5.824,0,7.373,5.125,7.373,8.405c0,0.664-0.074,1.18-0.111,1.512H425.592z M435.103,123.749
				c0.037-2.064-0.848-5.272-4.497-5.272c-3.281,0-4.719,3.023-4.978,5.272H435.103z"/>
			<path fill="#FCE2EA" d="M441.331,121.39c0-1.844-0.037-3.355-0.147-4.83h2.875l0.185,2.949h0.073
				c0.885-1.696,2.949-3.355,5.898-3.355c2.471,0,6.305,1.475,6.305,7.595v10.654h-3.244v-10.286c0-2.875-1.069-5.271-4.129-5.271
				c-2.139,0-3.797,1.512-4.351,3.318c-0.147,0.406-0.221,0.958-0.221,1.511v10.728h-3.244V121.39z"/>
			<path fill="#FCE2EA" d="M464.628,111.435v5.125h4.646v2.47h-4.646v9.622c0,2.212,0.627,3.465,2.434,3.465
				c0.848,0,1.475-0.11,1.88-0.221l0.147,2.433c-0.627,0.258-1.622,0.442-2.876,0.442c-1.511,0-2.728-0.479-3.502-1.364
				c-0.922-0.958-1.253-2.543-1.253-4.645v-9.732h-2.765v-2.47h2.765v-4.276L464.628,111.435z"/>
			<path fill="#FCE2EA" d="M487.556,109.851c1.438-0.258,3.244-0.479,5.345-0.479c2.949,0,5.198,0.774,6.562,2.102
				c1.217,1.143,1.917,2.802,1.917,4.866c0,2.138-0.59,3.724-1.732,4.977c-1.585,1.807-4.239,2.765-7.3,2.765
				c-1.143,0-2.138-0.037-3.022-0.295v10.617h-1.77V109.851z M489.325,122.237c0.848,0.295,1.954,0.369,3.17,0.369
				c4.461,0,7.115-2.138,7.115-6.083c0-3.908-2.839-5.678-6.783-5.678c-1.622,0-2.839,0.147-3.502,0.295V122.237z"/>
			<path fill="#FCE2EA" d="M510.816,134.809c-4.571,0-8.11-3.576-8.11-9.106c0-6.046,3.981-9.401,8.368-9.401
				c4.903,0,8.221,3.687,8.221,9.106c0,6.562-4.534,9.401-8.441,9.401H510.816z M510.927,133.334c3.687,0,6.599-3.318,6.599-7.853
				c0-3.244-1.807-7.705-6.488-7.705c-4.534,0-6.562,4.019-6.562,7.815c0,4.424,2.802,7.742,6.414,7.742H510.927z"/>
			<path fill="#FCE2EA" d="M522.833,122.016c0-1.77-0.037-3.576-0.147-5.309h1.622l0.073,3.576h0.111
				c0.773-2.249,2.617-3.981,5.014-3.981c0.258,0,0.516,0.037,0.737,0.074v1.659c-0.259-0.037-0.517-0.037-0.849-0.037
				c-2.433,0-4.165,2.101-4.645,4.939c-0.11,0.517-0.147,1.106-0.147,1.696v9.769h-1.77V122.016z"/>
			<path fill="#FCE2EA" d="M536.213,112.8v3.908h5.051v1.438h-5.051v11.502c0,2.249,0.701,3.649,2.581,3.649
				c0.921,0,1.585-0.11,2.027-0.258l0.222,1.327c-0.59,0.221-1.401,0.405-2.471,0.405c-1.29,0-2.359-0.405-3.022-1.217
				c-0.812-0.921-1.106-2.433-1.106-4.239v-11.17h-2.986v-1.438h2.986v-3.244L536.213,112.8z"/>
			<path fill="#FCE2EA" d="M544.359,134.403v-16.257h-2.544v-1.438h2.544v-0.958c0-2.728,0.516-4.94,1.954-6.378
				c1.105-1.069,2.544-1.548,3.944-1.548c1.143,0,2.102,0.295,2.654,0.626l-0.553,1.327c-0.517-0.258-1.18-0.479-2.249-0.479
				c-3.317,0-3.981,3.022-3.981,6.414v0.996h4.719v1.438h-4.719v16.257H544.359z"/>
			<path fill="#FCE2EA" d="M559.068,134.809c-4.571,0-8.11-3.576-8.11-9.106c0-6.046,3.981-9.401,8.368-9.401
				c4.903,0,8.221,3.687,8.221,9.106c0,6.562-4.534,9.401-8.441,9.401H559.068z M559.179,133.334c3.687,0,6.599-3.318,6.599-7.853
				c0-3.244-1.807-7.705-6.488-7.705c-4.534,0-6.562,4.019-6.562,7.815c0,4.424,2.802,7.742,6.414,7.742H559.179z"/>
			<path fill="#FCE2EA" d="M571.121,108.191h1.77v26.211h-1.77V108.191z"/>
			<path fill="#FCE2EA" d="M578.825,113.168c-0.811,0-1.364-0.701-1.364-1.511c0-0.812,0.627-1.549,1.438-1.549
				c0.811,0,1.4,0.701,1.4,1.549c0,0.811-0.553,1.511-1.438,1.511H578.825z M578.015,134.403v-17.695h1.77v17.695H578.015z"/>
			<path fill="#FCE2EA" d="M591.433,134.809c-4.571,0-8.11-3.576-8.11-9.106c0-6.046,3.981-9.401,8.368-9.401
				c4.903,0,8.221,3.687,8.221,9.106c0,6.562-4.534,9.401-8.442,9.401H591.433z M591.543,133.334c3.687,0,6.599-3.318,6.599-7.853
				c0-3.244-1.806-7.705-6.488-7.705c-4.534,0-6.562,4.019-6.562,7.815c0,4.424,2.802,7.742,6.414,7.742H591.543z"/>
			<path fill="#FCE2EA" d="M222.152,176.936c-4.571,0-8.11-3.576-8.11-9.105c0-6.046,3.981-9.4,8.369-9.4
				c4.903,0,8.221,3.687,8.221,9.105c0,6.562-4.535,9.4-8.442,9.4H222.152z M222.263,175.462c3.687,0,6.599-3.317,6.599-7.852
				c0-3.244-1.807-7.705-6.488-7.705c-4.535,0-6.562,4.018-6.562,7.815c0,4.424,2.802,7.741,6.415,7.741H222.263z"/>
			<path fill="#FCE2EA" d="M234.316,176.531v-16.258h-2.544v-1.438h2.544v-0.958c0-2.729,0.516-4.94,1.954-6.378
				c1.105-1.069,2.543-1.549,3.944-1.549c1.143,0,2.102,0.295,2.654,0.627l-0.553,1.327c-0.517-0.258-1.18-0.479-2.249-0.479
				c-3.318,0-3.981,3.023-3.981,6.415v0.995h4.719v1.438h-4.719v16.258H234.316z"/>
			<path fill="#FCE2EA" d="M255.328,151.684h1.77v17.179c0,6.341-3.171,8.073-6.71,8.073c-1.143,0-2.396-0.295-3.022-0.59l0.368-1.4
				c0.627,0.258,1.512,0.479,2.618,0.479c3.17,0,4.977-1.438,4.977-6.967V151.684z"/>
			<path fill="#FCE2EA" d="M268.672,176.936c-4.571,0-8.11-3.576-8.11-9.105c0-6.046,3.981-9.4,8.368-9.4
				c4.903,0,8.221,3.687,8.221,9.105c0,6.562-4.534,9.4-8.442,9.4H268.672z M268.782,175.462c3.687,0,6.599-3.317,6.599-7.852
				c0-3.244-1.806-7.705-6.488-7.705c-4.534,0-6.562,4.018-6.562,7.815c0,4.424,2.802,7.741,6.414,7.741H268.782z"/>
			<path fill="#FCE2EA" d="M279.987,174.209c0.959,0.59,2.396,1.216,3.981,1.216c2.802,0,4.129-1.511,4.129-3.354
				c0-1.954-1.18-2.985-3.723-4.019c-2.913-1.105-4.498-2.69-4.498-4.829c0-2.58,2.027-4.792,5.456-4.792
				c1.622,0,3.023,0.479,3.908,1.105l-0.664,1.438c-0.627-0.441-1.77-1.068-3.539-1.068c-2.249,0-3.429,1.438-3.429,3.06
				c0,1.843,1.254,2.617,3.65,3.612c2.875,1.144,4.571,2.581,4.571,5.272c0,3.022-2.359,5.05-5.972,5.05
				c-1.696,0-3.318-0.479-4.498-1.216L279.987,174.209z"/>
			<path fill="#FCE2EA" d="M293.553,150.32h1.77v11.687h0.073c0.517-0.996,1.364-1.918,2.396-2.544
				c1.032-0.627,2.249-1.032,3.576-1.032c1.659,0,6.156,0.848,6.156,7.446v10.654h-1.77v-10.47c0-3.17-1.253-6.083-4.866-6.083
				c-2.507,0-4.571,1.807-5.346,3.981c-0.184,0.553-0.221,1.032-0.221,1.77v10.802h-1.77V150.32z"/>
			<path fill="#FCE2EA" d="M319.54,151.684h1.77v12.571h0.11c0.738-0.958,1.475-1.807,2.139-2.58l8.811-9.991h2.139l-9.438,10.543
				l10.322,14.304h-2.102l-9.438-13.087l-2.544,2.802v10.285h-1.77V151.684z"/>
			<path fill="#FCE2EA" d="M337.528,163.075c0-1.622-0.037-2.838-0.147-4.239h1.658l0.111,3.171h0.073
				c0.959-1.991,3.208-3.576,6.083-3.576c1.695,0,6.193,0.848,6.193,7.483v10.617h-1.77v-10.47c0-3.244-1.254-6.156-4.903-6.156
				c-2.47,0-4.608,1.77-5.309,4.092c-0.11,0.405-0.221,0.995-0.221,1.549v10.985h-1.77V163.075z"/>
			<path fill="#FCE2EA" d="M356.623,167.499c0,5.641,3.097,7.89,6.746,7.89c2.581,0,3.908-0.517,4.903-0.995l0.442,1.363
				c-0.664,0.369-2.47,1.143-5.566,1.143c-5.088,0-8.258-3.686-8.258-8.884c0-5.898,3.392-9.585,7.963-9.585
				c5.787,0,6.894,5.456,6.894,8c0,0.479,0,0.736-0.073,1.068H356.623z M367.904,166.099c0.036-2.471-0.996-6.193-5.272-6.193
				c-3.907,0-5.566,3.465-5.898,6.193H367.904z"/>
			<path fill="#FCE2EA" d="M373.579,167.499c0,5.641,3.097,7.89,6.746,7.89c2.581,0,3.908-0.517,4.903-0.995l0.442,1.363
				c-0.663,0.369-2.47,1.143-5.566,1.143c-5.088,0-8.258-3.686-8.258-8.884c0-5.898,3.392-9.585,7.963-9.585
				c5.788,0,6.894,5.456,6.894,8c0,0.479,0,0.736-0.074,1.068H373.579z M384.859,166.099c0.037-2.471-0.995-6.193-5.271-6.193
				c-3.907,0-5.566,3.465-5.898,6.193H384.859z"/>
			<path fill="#FCE2EA" d="M390.277,150.32h1.77v26.211h-1.77V150.32z"/>
			<path fill="#FCE2EA" d="M408.192,172.329c0,1.4,0.037,2.838,0.258,4.202h-1.622l-0.258-2.544h-0.074
				c-0.885,1.364-2.838,2.949-5.677,2.949c-3.576,0-5.198-2.507-5.198-4.866c0-4.092,3.576-6.562,10.802-6.488v-0.479
				c0-1.732-0.332-5.234-4.534-5.197c-1.549,0-3.171,0.405-4.461,1.327l-0.553-1.29c1.622-1.069,3.612-1.512,5.197-1.512
				c5.125,0,6.12,3.834,6.12,6.967V172.329z M406.423,167.057c-3.871-0.11-8.958,0.479-8.958,4.719c0,2.544,1.695,3.687,3.539,3.687
				c2.949,0,4.645-1.807,5.234-3.539c0.147-0.368,0.185-0.773,0.185-1.068V167.057z"/>
			<path fill="#FCE2EA" d="M412.984,163.075c0-1.622-0.037-2.838-0.147-4.239h1.659l0.11,3.171h0.073
				c0.959-1.991,3.207-3.576,6.083-3.576c1.696,0,6.193,0.848,6.193,7.483v10.617h-1.77v-10.47c0-3.244-1.253-6.156-4.903-6.156
				c-2.47,0-4.607,1.77-5.309,4.092c-0.11,0.405-0.221,0.995-0.221,1.549v10.985h-1.77V163.075z"/>
			<path fill="#FCE2EA" d="M445.939,150.32v22.119c0,1.29,0.037,2.839,0.147,4.092h-1.585l-0.147-3.354h-0.074
				c-0.921,1.953-3.022,3.76-6.304,3.76c-4.387,0-7.631-3.649-7.631-8.921c-0.037-5.898,3.612-9.585,7.963-9.585
				c3.06,0,5.014,1.585,5.787,3.133h0.074V150.32H445.939z M444.17,165.841c0-0.479-0.037-1.106-0.185-1.623
				c-0.59-2.359-2.69-4.312-5.566-4.312c-3.871,0-6.304,3.354-6.304,7.926c0,3.981,1.99,7.631,6.193,7.631
				c2.543,0,4.939-1.695,5.677-4.607c0.147-0.443,0.185-0.922,0.185-1.475V165.841z"/>
		</g>
	</g>
</g>
<g id="Layer_15" display="none">
</g>
<g id="Layer_16">
</g>
</svg>
