<?xml version="1.0" encoding="utf-8"?>
<!-- Generator: Adobe Illustrator 17.0.0, SVG Export Plug-In . SVG Version: 6.00 Build 0)  -->
<!DOCTYPE svg PUBLIC "-//W3C//DTD SVG 1.1//EN" "http://www.w3.org/Graphics/SVG/1.1/DTD/svg11.dtd">
<svg version="1.1" id="Layer_1" xmlns="http://www.w3.org/2000/svg" xmlns:xlink="http://www.w3.org/1999/xlink" x="0px" y="0px"
	 width="170.012px" height="16.96px" viewBox="0 0 170.012 16.96" enable-background="new 0 0 170.012 16.96" xml:space="preserve">
<g>
	<path fill="#087272" d="M5.861,0.739h2.661v9.455c0,4.024-1.947,5.366-4.825,5.366c-0.757,0-1.666-0.13-2.25-0.347l0.325-2.142
		c0.433,0.151,1.017,0.26,1.645,0.26c1.515,0,2.445-0.692,2.445-3.224V0.739z"/>
	<path fill="#087272" d="M16.874,15.561c-4.132,0-6.729-3.159-6.729-7.422c0-4.457,2.834-7.638,6.946-7.638
		c4.241,0,6.75,3.224,6.75,7.378c0,4.891-2.964,7.682-6.945,7.682H16.874z M17.004,13.418c2.575,0,4.024-2.38,4.024-5.431
		c0-2.748-1.363-5.344-4.024-5.344c-2.661,0-4.046,2.531-4.046,5.431s1.471,5.344,4.024,5.344H17.004z"/>
	<path fill="#087272" d="M25.551,12.423c0.844,0.498,2.164,0.931,3.526,0.931c1.688,0,2.641-0.801,2.641-1.99
		c0-1.104-0.736-1.753-2.576-2.424c-2.423-0.844-3.959-2.142-3.959-4.219c0-2.402,1.991-4.198,5.172-4.198
		c1.579,0,2.726,0.347,3.483,0.715L33.21,3.4c-0.541-0.281-1.558-0.692-2.921-0.692c-1.688,0-2.402,0.888-2.402,1.753
		c0,1.125,0.844,1.645,2.792,2.38c2.531,0.974,3.743,2.25,3.743,4.327c0,2.358-1.774,4.371-5.518,4.371
		c-1.558,0-3.159-0.433-3.959-0.909L25.551,12.423z"/>
	<path fill="#087272" d="M38.512,0.739v5.842h6.167V0.739h2.661v14.583h-2.661V8.896h-6.167v6.426h-2.661V0.739H38.512z"/>
	<path fill="#087272" d="M54.004,0.955c1.126-0.194,2.358-0.324,3.743-0.324c2.662,0,4.674,0.714,5.886,1.991
		c1.168,1.211,1.817,2.855,1.817,5.062c0,2.143-0.584,4.067-1.904,5.518c-1.276,1.406-3.483,2.229-6.296,2.229
		c-1.125,0-2.186-0.021-3.246-0.108V0.955z M55.043,14.457c0.584,0.087,1.428,0.108,2.358,0.108c4.674,0,6.988-2.618,6.988-6.838
		c0.044-3.699-2.012-6.231-6.707-6.231c-1.125,0-2.013,0.108-2.64,0.238V14.457z"/>
	<path fill="#087272" d="M72.894,15.561c-3.592,0-6.383-2.835-6.383-7.378c0-4.782,2.899-7.682,6.556-7.682
		c3.679,0,6.361,2.878,6.361,7.378c0,5.15-3.159,7.682-6.513,7.682H72.894z M72.959,14.695c3.462,0,5.387-3.138,5.387-6.751
		c0-3.072-1.688-6.578-5.344-6.578c-3.7,0-5.409,3.376-5.409,6.772c0,3.289,1.904,6.557,5.344,6.557H72.959z"/>
	<path fill="#087272" d="M87.867,8.074h-5.82v6.383h6.513v0.865h-7.552V0.739h7.205v0.865h-6.166v5.604h5.82V8.074z"/>
	<path fill="#087272" d="M89.663,13.722c0.822,0.562,1.97,0.952,3.181,0.952c2.186,0,3.527-1.233,3.527-3.029
		c0-1.623-0.844-2.597-2.965-3.397c-2.336-0.844-3.743-2.056-3.743-4.024c0-2.142,1.753-3.7,4.241-3.7
		c1.363,0,2.401,0.347,2.899,0.671l-0.39,0.888c-0.39-0.281-1.319-0.692-2.574-0.692c-2.358,0-3.159,1.515-3.159,2.661
		c0,1.601,0.93,2.423,3.029,3.245c2.401,0.974,3.678,2.077,3.678,4.241c0,2.12-1.515,4.003-4.63,4.003
		c-1.255,0-2.727-0.411-3.483-0.974L89.663,13.722z"/>
	<path fill="#087272" d="M103.598,0.955c1.19-0.194,2.661-0.324,4.241-0.324c2.726,0,4.587,0.562,5.929,1.688
		c1.428,1.147,2.293,2.899,2.293,5.366c0,2.618-0.887,4.544-2.271,5.799c-1.45,1.319-3.765,1.99-6.6,1.99
		c-1.536,0-2.704-0.086-3.592-0.194V0.955z M106.259,13.311c0.368,0.064,0.931,0.064,1.472,0.064
		c3.462,0.021,5.518-1.904,5.518-5.604c0.021-3.202-1.839-5.063-5.172-5.063c-0.844,0-1.428,0.065-1.817,0.151V13.311z"/>
	<path fill="#087272" d="M125.56,8.854h-5.496v4.283h6.146v2.186h-8.807V0.739h8.481v2.186h-5.82v3.765h5.496V8.854z"/>
	<path fill="#087272" d="M127.962,12.423c0.844,0.498,2.163,0.931,3.526,0.931c1.688,0,2.64-0.801,2.64-1.99
		c0-1.104-0.735-1.753-2.574-2.424c-2.424-0.844-3.96-2.142-3.96-4.219c0-2.402,1.991-4.198,5.171-4.198
		c1.58,0,2.727,0.347,3.484,0.715L135.621,3.4c-0.541-0.281-1.558-0.692-2.921-0.692c-1.688,0-2.401,0.888-2.401,1.753
		c0,1.125,0.844,1.645,2.791,2.38c2.531,0.974,3.743,2.25,3.743,4.327c0,2.358-1.774,4.371-5.518,4.371
		c-1.558,0-3.159-0.433-3.96-0.909L127.962,12.423z"/>
	<path fill="#087272" d="M140.923,0.739v14.583h-2.661V0.739H140.923z"/>
	<path fill="#087272" d="M155.116,14.651c-0.93,0.347-2.747,0.822-4.673,0.822c-2.467,0-4.35-0.627-5.734-1.947
		c-1.298-1.233-2.033-3.159-2.033-5.365c0.021-4.631,3.288-7.573,8.113-7.573c1.796,0,3.202,0.367,3.873,0.692l-0.584,2.142
		c-0.801-0.367-1.774-0.627-3.311-0.627c-3.115,0-5.301,1.839-5.301,5.236c0,3.332,2.033,5.279,5.062,5.279
		c0.974,0,1.666-0.13,2.013-0.281V9.372h-2.575V7.273h5.149V14.651z"/>
	<path fill="#087272" d="M156.848,15.322V0.739h3.051l3.765,6.253c0.952,1.623,1.817,3.311,2.488,4.89l0.043-0.021
		c-0.194-1.926-0.237-3.808-0.237-6.036V0.739h2.467v14.583h-2.77l-3.809-6.426c-0.931-1.602-1.883-3.376-2.597-5.02l-0.086,0.021
		c0.107,1.882,0.151,3.808,0.151,6.21v5.214H156.848z"/>
</g>
</svg>
