<?xml version="1.0" encoding="utf-8"?>
<!-- Generator: Adobe Illustrator 17.0.0, SVG Export Plug-In . SVG Version: 6.00 Build 0)  -->
<!DOCTYPE svg PUBLIC "-//W3C//DTD SVG 1.1//EN" "http://www.w3.org/Graphics/SVG/1.1/DTD/svg11.dtd">
<svg version="1.1" xmlns="http://www.w3.org/2000/svg" xmlns:xlink="http://www.w3.org/1999/xlink" x="0px" y="0px"
	 width="133.167px" height="11.75px" viewBox="0 0 133.167 11.75" enable-background="new 0 0 133.167 11.75" xml:space="preserve">
<g id="Layer_1">
</g>
<g id="Layer_2">
	<g>
		<path fill="#0395BC" d="M0.393,10.429c0.479-0.036,0.899-0.168,1.151-0.444C1.832,9.649,1.94,9.194,1.94,7.803V2.945h1.056V8.21
			c0,1.127-0.18,1.859-0.696,2.387c-0.468,0.468-1.235,0.66-1.799,0.66L0.393,10.429z M3.116,1.314
			c0.012,0.348-0.24,0.648-0.66,0.648c-0.396,0-0.647-0.3-0.647-0.648c0-0.372,0.276-0.66,0.672-0.66
			C2.864,0.654,3.116,0.942,3.116,1.314z"/>
		<path fill="#0395BC" d="M9.977,5.8c0,2.146-1.487,3.082-2.89,3.082c-1.571,0-2.783-1.151-2.783-2.986
			c0-1.943,1.271-3.082,2.878-3.082C8.85,2.813,9.977,4.024,9.977,5.8z M5.372,5.859c0,1.271,0.732,2.231,1.763,2.231
			c1.007,0,1.763-0.947,1.763-2.255c0-0.983-0.492-2.23-1.739-2.23C5.912,3.605,5.372,4.756,5.372,5.859z"/>
		<path fill="#0395BC" d="M11.168,7.67c0.312,0.204,0.864,0.42,1.392,0.42c0.768,0,1.127-0.384,1.127-0.863
			c0-0.504-0.3-0.78-1.079-1.068c-1.043-0.372-1.535-0.947-1.535-1.643c0-0.935,0.755-1.703,2.003-1.703
			c0.587,0,1.104,0.167,1.427,0.359L14.239,3.94c-0.228-0.144-0.647-0.335-1.187-0.335c-0.624,0-0.972,0.36-0.972,0.792
			c0,0.479,0.348,0.695,1.104,0.983c1.007,0.384,1.523,0.888,1.523,1.751c0,1.02-0.792,1.739-2.171,1.739
			c-0.635,0-1.223-0.156-1.631-0.396L11.168,7.67z"/>
		<path fill="#0395BC" d="M16.064,0.235h1.056v3.622h0.024c0.168-0.3,0.432-0.563,0.755-0.743c0.312-0.18,0.684-0.3,1.08-0.3
			c0.779,0,2.027,0.479,2.027,2.482V8.75H19.95V5.416c0-0.936-0.348-1.727-1.343-1.727c-0.684,0-1.223,0.479-1.415,1.055
			c-0.06,0.144-0.072,0.3-0.072,0.504V8.75h-1.056V0.235z"/>
		<path fill="#0395BC" d="M28.134,9.518c-0.66,0.348-1.332,0.479-2.135,0.479c-1.967,0-3.634-1.439-3.634-3.742
			c0-2.471,1.715-4.605,4.378-4.605c2.086,0,3.49,1.463,3.49,3.466c0,1.799-1.007,2.854-2.135,2.854
			c-0.479,0-0.923-0.324-0.888-1.055h-0.048c-0.419,0.708-0.971,1.055-1.691,1.055c-0.696,0-1.295-0.563-1.295-1.511
			c0-1.487,1.175-2.843,2.842-2.843c0.516,0,0.972,0.108,1.284,0.252L27.894,6.04c-0.18,0.912-0.036,1.331,0.359,1.343
			c0.612,0.012,1.295-0.804,1.295-2.195c0-1.739-1.043-2.986-2.902-2.986c-1.955,0-3.598,1.547-3.598,3.982
			c0,2.003,1.308,3.238,3.083,3.238c0.684,0,1.319-0.144,1.811-0.42L28.134,9.518z M27.474,4.336c-0.12-0.036-0.324-0.084-0.6-0.084
			c-1.056,0-1.907,0.996-1.907,2.159c0,0.528,0.264,0.912,0.792,0.912c0.696,0,1.332-0.888,1.463-1.631L27.474,4.336z"/>
		<path fill="#0395BC" d="M30.153,10.429c0.479-0.036,0.899-0.168,1.151-0.444C31.592,9.649,31.7,9.194,31.7,7.803V2.945h1.056V8.21
			c0,1.127-0.18,1.859-0.696,2.387c-0.468,0.468-1.235,0.66-1.799,0.66L30.153,10.429z M32.875,1.314
			c0.012,0.348-0.24,0.648-0.66,0.648c-0.396,0-0.647-0.3-0.647-0.648c0-0.372,0.276-0.66,0.672-0.66
			C32.624,0.654,32.875,0.942,32.875,1.314z"/>
		<path fill="#0395BC" d="M39.737,5.8c0,2.146-1.487,3.082-2.89,3.082c-1.571,0-2.783-1.151-2.783-2.986
			c0-1.943,1.271-3.082,2.878-3.082C38.61,2.813,39.737,4.024,39.737,5.8z M35.132,5.859c0,1.271,0.732,2.231,1.763,2.231
			c1.007,0,1.763-0.947,1.763-2.255c0-0.983-0.492-2.23-1.739-2.23C35.672,3.605,35.132,4.756,35.132,5.859z"/>
		<path fill="#0395BC" d="M40.928,7.67c0.312,0.204,0.864,0.42,1.392,0.42c0.768,0,1.127-0.384,1.127-0.863
			c0-0.504-0.3-0.78-1.079-1.068c-1.043-0.372-1.535-0.947-1.535-1.643c0-0.935,0.755-1.703,2.003-1.703
			c0.587,0,1.104,0.167,1.427,0.359L43.998,3.94c-0.228-0.144-0.647-0.335-1.187-0.335c-0.624,0-0.972,0.36-0.972,0.792
			c0,0.479,0.348,0.695,1.104,0.983c1.007,0.384,1.523,0.888,1.523,1.751c0,1.02-0.792,1.739-2.171,1.739
			c-0.635,0-1.223-0.156-1.631-0.396L40.928,7.67z"/>
		<path fill="#0395BC" d="M45.824,0.235h1.056v3.622h0.024c0.168-0.3,0.432-0.563,0.755-0.743c0.312-0.18,0.684-0.3,1.08-0.3
			c0.779,0,2.027,0.479,2.027,2.482V8.75H49.71V5.416c0-0.936-0.348-1.727-1.343-1.727c-0.684,0-1.223,0.479-1.415,1.055
			c-0.06,0.144-0.072,0.3-0.072,0.504V8.75h-1.056V0.235z"/>
		<path fill="#0395BC" d="M57.497,0.235v7.016c0,0.516,0.012,1.103,0.048,1.499h-0.947L56.55,7.743h-0.024
			c-0.324,0.647-1.032,1.139-1.979,1.139c-1.403,0-2.483-1.188-2.483-2.95C52.053,4,53.252,2.813,54.667,2.813
			c0.888,0,1.487,0.419,1.751,0.887h0.024V0.235H57.497z M56.442,5.308c0-0.132-0.012-0.312-0.048-0.444
			c-0.156-0.672-0.731-1.224-1.523-1.224c-1.091,0-1.739,0.959-1.739,2.243c0,1.175,0.576,2.146,1.715,2.146
			c0.708,0,1.355-0.468,1.547-1.259c0.036-0.144,0.048-0.288,0.048-0.456V5.308z"/>
		<path fill="#0395BC" d="M64.505,5.8c0,2.146-1.487,3.082-2.89,3.082c-1.571,0-2.783-1.151-2.783-2.986
			c0-1.943,1.271-3.082,2.878-3.082C63.378,2.813,64.505,4.024,64.505,5.8z M59.899,5.859c0,1.271,0.732,2.231,1.763,2.231
			c1.007,0,1.763-0.947,1.763-2.255c0-0.983-0.492-2.23-1.739-2.23C60.439,3.605,59.899,4.756,59.899,5.859z"/>
		<path fill="#0395BC" d="M66.428,6.04c0.024,1.427,0.935,2.015,1.991,2.015c0.756,0,1.211-0.132,1.607-0.3l0.18,0.756
			c-0.372,0.168-1.008,0.36-1.932,0.36c-1.787,0-2.854-1.176-2.854-2.927s1.032-3.13,2.723-3.13c1.895,0,2.398,1.667,2.398,2.734
			c0,0.216-0.024,0.384-0.036,0.492H66.428z M69.522,5.284c0.012-0.671-0.275-1.715-1.463-1.715c-1.068,0-1.536,0.983-1.62,1.715
			H69.522z"/>
		<path fill="#0395BC" d="M71.707,7.67c0.312,0.204,0.864,0.42,1.393,0.42c0.768,0,1.127-0.384,1.127-0.863
			c0-0.504-0.301-0.78-1.08-1.068c-1.043-0.372-1.535-0.947-1.535-1.643c0-0.935,0.756-1.703,2.004-1.703
			c0.587,0,1.103,0.167,1.427,0.359L74.778,3.94c-0.227-0.144-0.646-0.335-1.187-0.335c-0.624,0-0.972,0.36-0.972,0.792
			c0,0.479,0.348,0.695,1.104,0.983c1.008,0.384,1.523,0.888,1.523,1.751c0,1.02-0.792,1.739-2.172,1.739
			c-0.635,0-1.223-0.156-1.631-0.396L71.707,7.67z"/>
		<path fill="#0395BC" d="M81.617,0.235v7.016c0,0.516,0.012,1.103,0.047,1.499h-0.947L80.67,7.743h-0.024
			c-0.324,0.647-1.032,1.139-1.979,1.139c-1.402,0-2.482-1.188-2.482-2.95C76.172,4,77.371,2.813,78.786,2.813
			c0.888,0,1.487,0.419,1.751,0.887h0.024V0.235H81.617z M80.562,5.308c0-0.132-0.013-0.312-0.048-0.444
			c-0.156-0.672-0.732-1.224-1.523-1.224c-1.092,0-1.739,0.959-1.739,2.243c0,1.175,0.575,2.146,1.716,2.146
			c0.707,0,1.354-0.468,1.547-1.259c0.035-0.144,0.048-0.288,0.048-0.456V5.308z"/>
		<path fill="#0395BC" d="M83.959,6.04c0.024,1.427,0.936,2.015,1.991,2.015c0.756,0,1.211-0.132,1.607-0.3l0.18,0.756
			c-0.372,0.168-1.008,0.36-1.931,0.36c-1.787,0-2.854-1.176-2.854-2.927s1.031-3.13,2.723-3.13c1.895,0,2.398,1.667,2.398,2.734
			c0,0.216-0.024,0.384-0.036,0.492H83.959z M87.054,5.284c0.012-0.671-0.276-1.715-1.463-1.715c-1.067,0-1.535,0.983-1.619,1.715
			H87.054z"/>
		<path fill="#0395BC" d="M89.24,7.67c0.312,0.204,0.863,0.42,1.392,0.42c0.768,0,1.127-0.384,1.127-0.863
			c0-0.504-0.3-0.78-1.079-1.068c-1.044-0.372-1.535-0.947-1.535-1.643c0-0.935,0.756-1.703,2.003-1.703
			c0.588,0,1.104,0.167,1.427,0.359L92.31,3.94c-0.228-0.144-0.647-0.335-1.188-0.335c-0.623,0-0.971,0.36-0.971,0.792
			c0,0.479,0.348,0.695,1.103,0.983c1.008,0.384,1.523,0.888,1.523,1.751c0,1.02-0.791,1.739-2.171,1.739
			c-0.636,0-1.223-0.156-1.631-0.396L89.24,7.67z"/>
		<path fill="#0395BC" d="M95.311,1.314c0.012,0.36-0.252,0.648-0.672,0.648c-0.371,0-0.636-0.288-0.636-0.648
			c0-0.372,0.276-0.66,0.66-0.66C95.059,0.654,95.311,0.942,95.311,1.314z M94.136,8.75V2.945h1.055V8.75H94.136z"/>
		<path fill="#0395BC" d="M101.945,2.945c-0.024,0.419-0.048,0.887-0.048,1.595v3.37c0,1.331-0.264,2.146-0.828,2.65
			c-0.563,0.528-1.379,0.696-2.11,0.696c-0.696,0-1.464-0.168-1.931-0.48l0.264-0.804c0.384,0.24,0.983,0.456,1.703,0.456
			c1.079,0,1.871-0.564,1.871-2.027V7.754h-0.024c-0.324,0.54-0.947,0.972-1.847,0.972c-1.439,0-2.471-1.223-2.471-2.831
			c0-1.967,1.283-3.082,2.614-3.082c1.008,0,1.56,0.527,1.811,1.007h0.024l0.048-0.875H101.945z M100.853,5.236
			c0-0.18-0.012-0.336-0.06-0.479c-0.192-0.612-0.708-1.116-1.476-1.116c-1.007,0-1.727,0.852-1.727,2.195
			c0,1.14,0.575,2.087,1.715,2.087c0.647,0,1.235-0.408,1.463-1.079c0.061-0.18,0.084-0.384,0.084-0.564V5.236z"/>
		<path fill="#0395BC" d="M103.579,4.516c0-0.6-0.013-1.091-0.049-1.571h0.936l0.061,0.959h0.023
			c0.288-0.552,0.96-1.091,1.919-1.091c0.804,0,2.051,0.479,2.051,2.47V8.75h-1.055V5.404c0-0.936-0.348-1.715-1.344-1.715
			c-0.695,0-1.235,0.492-1.415,1.079c-0.048,0.132-0.072,0.312-0.072,0.492v3.49h-1.055V4.516z"/>
		<path fill="#0395BC" d="M109.988,8.126c0-0.444,0.3-0.756,0.72-0.756c0.419,0,0.707,0.312,0.707,0.756
			c0,0.432-0.275,0.755-0.72,0.755C110.275,8.882,109.988,8.558,109.988,8.126z"/>
		<path fill="#0395BC" d="M116.862,8.534c-0.276,0.144-0.888,0.336-1.668,0.336c-1.751,0-2.89-1.188-2.89-2.962
			c0-1.787,1.223-3.083,3.118-3.083c0.623,0,1.175,0.156,1.463,0.3l-0.24,0.815c-0.251-0.144-0.647-0.275-1.223-0.275
			c-1.331,0-2.051,0.983-2.051,2.194c0,1.343,0.863,2.171,2.015,2.171c0.6,0,0.995-0.156,1.295-0.288L116.862,8.534z"/>
		<path fill="#0395BC" d="M123.281,5.8c0,2.146-1.487,3.082-2.891,3.082c-1.571,0-2.782-1.151-2.782-2.986
			c0-1.943,1.271-3.082,2.878-3.082C122.153,2.813,123.281,4.024,123.281,5.8z M118.675,5.859c0,1.271,0.731,2.231,1.763,2.231
			c1.008,0,1.763-0.947,1.763-2.255c0-0.983-0.491-2.23-1.738-2.23C119.214,3.605,118.675,4.756,118.675,5.859z"/>
		<path fill="#0395BC" d="M124.616,4.516c0-0.6-0.013-1.091-0.049-1.571h0.924l0.048,0.936h0.036
			c0.324-0.552,0.863-1.067,1.823-1.067c0.791,0,1.391,0.479,1.643,1.163h0.024c0.18-0.324,0.407-0.576,0.647-0.755
			c0.348-0.264,0.731-0.408,1.283-0.408c0.768,0,1.907,0.503,1.907,2.519V8.75h-1.031V5.464c0-1.115-0.408-1.787-1.26-1.787
			c-0.6,0-1.067,0.444-1.247,0.959c-0.048,0.144-0.084,0.336-0.084,0.528V8.75h-1.031V5.272c0-0.923-0.408-1.595-1.212-1.595
			c-0.659,0-1.139,0.528-1.307,1.056c-0.061,0.156-0.084,0.335-0.084,0.516V8.75h-1.031V4.516z"/>
	</g>
</g>
</svg>
