<?xml version="1.0" encoding="utf-8"?>
<!-- Generator: Adobe Illustrator 17.0.0, SVG Export Plug-In . SVG Version: 6.00 Build 0)  -->
<!DOCTYPE svg PUBLIC "-//W3C//DTD SVG 1.1//EN" "http://www.w3.org/Graphics/SVG/1.1/DTD/svg11.dtd">
<svg version="1.1" xmlns="http://www.w3.org/2000/svg" xmlns:xlink="http://www.w3.org/1999/xlink" x="0px" y="0px" width="500px"
	 height="100px" viewBox="0 0 500 100" enable-background="new 0 0 500 100" xml:space="preserve">
<g id="Layer_1">
</g>
<g id="Layer_2">
	<g>
		<path fill="#FFFFFF" d="M59.617,9.784c5.046-0.906,11.386-1.682,18.76-1.682c10.35,0,18.243,2.717,23.029,7.375
			c4.27,4.011,6.728,9.833,6.728,17.078c0,7.504-2.07,13.067-6.081,17.466c-5.563,6.34-14.878,9.703-25.617,9.703
			c-4.011,0-7.504-0.129-10.609-1.034V95.95h-6.21V9.784z M65.828,53.255c2.976,1.035,6.857,1.294,11.126,1.294
			c15.655,0,24.97-7.504,24.97-21.348c0-13.714-9.962-19.924-23.806-19.924c-5.693,0-9.962,0.518-12.291,1.035V53.255z"/>
		<path fill="#FFFFFF" d="M138.669,97.373c-16.043,0-28.463-12.55-28.463-31.956c0-21.219,13.973-32.992,29.369-32.992
			c17.207,0,28.852,12.938,28.852,31.957c0,23.029-15.914,32.991-29.628,32.991H138.669z M139.057,92.198
			c12.938,0,23.159-11.645,23.159-27.558c0-11.386-6.339-27.041-22.771-27.041c-15.914,0-23.03,14.102-23.03,27.428
			c0,15.525,9.833,27.17,22.512,27.17H139.057z"/>
		<path fill="#FFFFFF" d="M178.26,52.479c0-6.21-0.129-12.549-0.517-18.63h5.692l0.259,12.55h0.388
			c2.717-7.892,9.186-13.973,17.596-13.973c0.906,0,1.811,0.129,2.587,0.259v5.822c-0.906-0.129-1.811-0.129-2.976-0.129
			c-8.539,0-14.62,7.375-16.302,17.336c-0.388,1.812-0.518,3.882-0.518,5.952V95.95h-6.21V52.479z"/>
		<path fill="#FFFFFF" d="M227.812,20.134v13.714h17.725v5.046h-17.725v40.367c0,7.892,2.458,12.808,9.057,12.808
			c3.234,0,5.563-0.388,7.116-0.905l0.776,4.658c-2.07,0.775-4.917,1.423-8.668,1.423c-4.528,0-8.28-1.423-10.609-4.27
			c-2.846-3.234-3.881-8.539-3.881-14.879V38.894h-10.48v-5.046h10.48V22.463L227.812,20.134z"/>
		<path fill="#FFFFFF" d="M261.58,95.95V38.894h-8.928v-5.046h8.928v-3.364c0-9.574,1.811-17.337,6.857-22.383
			c3.881-3.752,8.927-5.434,13.843-5.434c4.011,0,7.375,1.035,9.315,2.199l-1.94,4.658c-1.812-0.906-4.14-1.682-7.893-1.682
			c-11.644,0-13.973,10.609-13.973,22.512v3.493h16.561v5.046H267.79V95.95H261.58z"/>
		<path fill="#FFFFFF" d="M315.789,97.373c-16.043,0-28.463-12.55-28.463-31.956c0-21.219,13.973-32.992,29.369-32.992
			c17.207,0,28.852,12.938,28.852,31.957c0,23.029-15.914,32.991-29.628,32.991H315.789z M316.178,92.198
			c12.938,0,23.158-11.645,23.158-27.558c0-11.386-6.339-27.041-22.77-27.041c-15.914,0-23.03,14.102-23.03,27.428
			c0,15.525,9.833,27.17,22.513,27.17H316.178z"/>
		<path fill="#FFFFFF" d="M355.51,3.961h6.211V95.95h-6.211V3.961z"/>
		<path fill="#FFFFFF" d="M377.374,21.428c-2.847,0-4.787-2.458-4.787-5.305c0-2.846,2.199-5.434,5.046-5.434
			c2.846,0,4.916,2.458,4.916,5.434c0,2.847-1.94,5.305-5.045,5.305H377.374z M374.527,95.95V33.848h6.211V95.95H374.527z"/>
		<path fill="#FFFFFF" d="M419.035,97.373c-16.043,0-28.464-12.55-28.464-31.956c0-21.219,13.973-32.992,29.369-32.992
			c17.207,0,28.852,12.938,28.852,31.957c0,23.029-15.914,32.991-29.628,32.991H419.035z M419.423,92.198
			c12.938,0,23.159-11.645,23.159-27.558c0-11.386-6.34-27.041-22.771-27.041c-15.913,0-23.029,14.102-23.029,27.428
			c0,15.525,9.833,27.17,22.512,27.17H419.423z"/>
	</g>
</g>
</svg>
