<?xml version="1.0" encoding="utf-8"?>
<!-- Generator: Adobe Illustrator 17.0.0, SVG Export Plug-In . SVG Version: 6.00 Build 0)  -->
<!DOCTYPE svg PUBLIC "-//W3C//DTD SVG 1.1//EN" "http://www.w3.org/Graphics/SVG/1.1/DTD/svg11.dtd">
<svg version="1.1" xmlns="http://www.w3.org/2000/svg" xmlns:xlink="http://www.w3.org/1999/xlink" x="0px" y="0px" width="215px"
	 height="26.25px" viewBox="0 0 215 26.25" enable-background="new 0 0 215 26.25" xml:space="preserve">
<g id="Layer_1">
</g>
<g id="Layer_2">
	<g>
		<path fill="#FFFFFF" d="M26.016,1.343c1.404-0.252,3.167-0.468,5.219-0.468c2.88,0,5.076,0.756,6.407,2.052
			c1.188,1.116,1.872,2.736,1.872,4.751c0,2.087-0.576,3.635-1.692,4.859c-1.548,1.764-4.14,2.7-7.127,2.7
			c-1.116,0-2.088-0.036-2.952-0.288v10.367h-1.728V1.343z M27.744,13.438c0.828,0.288,1.908,0.36,3.096,0.36
			c4.355,0,6.947-2.088,6.947-5.939c0-3.815-2.771-5.543-6.623-5.543c-1.584,0-2.771,0.144-3.419,0.288V13.438z"/>
		<path fill="#FFFFFF" d="M42.107,1.379c1.512-0.324,3.563-0.504,5.255-0.504c3.167,0,5.184,0.684,6.551,2.016
			c1.044,1.008,1.692,2.628,1.692,4.319c0,3.276-1.944,5.364-4.751,6.335v0.072c1.944,0.612,3.167,2.448,3.744,5.147
			c0.828,3.78,1.295,5.58,1.8,6.551h-1.764c-0.396-0.72-0.9-2.844-1.548-5.903c-0.756-3.492-2.268-5.075-5.471-5.219h-3.779v11.123
			h-1.728V1.379z M43.835,12.79h3.852c3.743,0,6.191-2.088,6.191-5.292c0-3.708-2.735-5.219-6.551-5.219
			c-1.656,0-2.879,0.18-3.491,0.324V12.79z"/>
		<path fill="#FFFFFF" d="M65.687,25.316V1.056h1.62l9.431,14.326c1.979,3.023,3.383,5.291,4.571,7.631l0.072-0.036
			c-0.252-3.275-0.288-6.047-0.288-9.827V1.056h1.656v24.261h-1.584l-9.251-14.11c-1.8-2.771-3.456-5.327-4.715-7.847l-0.072,0.036
			c0.18,2.988,0.216,5.615,0.216,9.647v12.274H65.687z"/>
		<path fill="#FFFFFF" d="M86.891,16.498c0,5.507,3.024,7.703,6.587,7.703c2.52,0,3.815-0.504,4.787-0.972l0.432,1.332
			c-0.648,0.359-2.412,1.115-5.436,1.115c-4.967,0-8.063-3.6-8.063-8.674c0-5.759,3.312-9.359,7.775-9.359
			c5.651,0,6.731,5.327,6.731,7.811c0,0.468,0,0.72-0.072,1.044H86.891z M97.905,15.13c0.036-2.412-0.972-6.047-5.147-6.047
			c-3.815,0-5.435,3.383-5.759,6.047H97.905z"/>
		<path fill="#FFFFFF" d="M101.794,8.039l2.916,9.827c0.576,2.016,1.08,3.743,1.476,5.399h0.072c0.432-1.584,1.044-3.42,1.728-5.399
			l3.456-9.827h1.62l3.311,9.719c0.721,2.124,1.261,3.887,1.692,5.507h0.072c0.359-1.62,0.899-3.348,1.583-5.435l3.06-9.791h1.764
			l-5.759,17.278h-1.476l-3.275-9.647c-0.72-2.087-1.332-3.923-1.8-5.867h-0.072c-0.504,2.016-1.152,3.924-1.872,5.939l-3.419,9.575
			h-1.512l-5.327-17.278H101.794z"/>
		<path fill="#FFFFFF" d="M125.193,23.049c0.937,0.575,2.34,1.188,3.888,1.188c2.736,0,4.031-1.476,4.031-3.275
			c0-1.908-1.151-2.916-3.635-3.923c-2.844-1.08-4.392-2.628-4.392-4.715c0-2.52,1.979-4.68,5.327-4.68
			c1.584,0,2.952,0.468,3.815,1.08l-0.647,1.404c-0.612-0.432-1.729-1.044-3.456-1.044c-2.195,0-3.348,1.404-3.348,2.987
			c0,1.8,1.224,2.556,3.563,3.528c2.808,1.116,4.464,2.52,4.464,5.147c0,2.951-2.304,4.931-5.831,4.931
			c-1.656,0-3.24-0.468-4.392-1.188L125.193,23.049z"/>
		<path fill="#FFFFFF" d="M137.757,8.039l2.915,9.827c0.576,2.016,1.08,3.743,1.477,5.399h0.071c0.433-1.584,1.044-3.42,1.729-5.399
			l3.455-9.827h1.62l3.312,9.719c0.72,2.124,1.26,3.887,1.691,5.507h0.072c0.36-1.62,0.9-3.348,1.584-5.435l3.06-9.791h1.764
			l-5.76,17.278h-1.476l-3.275-9.647c-0.72-2.087-1.332-3.923-1.8-5.867h-0.072c-0.504,2.016-1.151,3.924-1.871,5.939l-3.42,9.575
			h-1.512l-5.327-17.278H137.757z"/>
		<path fill="#FFFFFF" d="M163.604,4.583c-0.792,0-1.332-0.684-1.332-1.476c0-0.792,0.611-1.512,1.403-1.512
			s1.368,0.684,1.368,1.512c0,0.792-0.54,1.476-1.404,1.476H163.604z M162.812,25.316V8.039h1.728v17.278H162.812z"/>
		<path fill="#FFFFFF" d="M168.32,13.222c0-1.728-0.036-3.492-0.145-5.184h1.584l0.072,3.492h0.107
			c0.756-2.196,2.556-3.888,4.896-3.888c0.252,0,0.504,0.036,0.72,0.072v1.62c-0.252-0.036-0.504-0.036-0.827-0.036
			c-2.376,0-4.067,2.052-4.536,4.823c-0.107,0.504-0.144,1.08-0.144,1.656v9.539h-1.728V13.222z"/>
		<path fill="#FFFFFF" d="M177.608,16.498c0,5.507,3.023,7.703,6.587,7.703c2.52,0,3.815-0.504,4.787-0.972l0.432,1.332
			c-0.647,0.359-2.411,1.115-5.435,1.115c-4.968,0-8.063-3.6-8.063-8.674c0-5.759,3.312-9.359,7.775-9.359
			c5.651,0,6.731,5.327,6.731,7.811c0,0.468,0,0.72-0.072,1.044H177.608z M188.623,15.13c0.035-2.412-0.973-6.047-5.147-6.047
			c-3.815,0-5.436,3.383-5.76,6.047H188.623z"/>
	</g>
</g>
</svg>
