<?xml version="1.0" encoding="utf-8"?>
<!-- Generator: Adobe Illustrator 17.0.0, SVG Export Plug-In . SVG Version: 6.00 Build 0)  -->
<!DOCTYPE svg PUBLIC "-//W3C//DTD SVG 1.1//EN" "http://www.w3.org/Graphics/SVG/1.1/DTD/svg11.dtd">
<svg version="1.1" xmlns="http://www.w3.org/2000/svg" xmlns:xlink="http://www.w3.org/1999/xlink" x="0px" y="0px"
	 width="234.667px" height="34.75px" viewBox="0 0 234.667 34.75" enable-background="new 0 0 234.667 34.75" xml:space="preserve">
<g id="Layer_1">
</g>
<g id="Layer_2">
	<g>
		<path fill="#FFFFFF" d="M11.837,3.495H3.918V2.056h17.566v1.439h-7.919v22.821h-1.728V3.495z"/>
		<path fill="#FFFFFF" d="M22.566,0.724h1.728v11.411h0.072c0.504-0.972,1.332-1.872,2.34-2.484s2.196-1.008,3.492-1.008
			c1.62,0,6.011,0.828,6.011,7.271v10.403H34.48V16.094c0-3.096-1.224-5.939-4.751-5.939c-2.448,0-4.463,1.764-5.219,3.888
			c-0.18,0.54-0.216,1.008-0.216,1.728v10.547h-1.728V0.724z"/>
		<path fill="#FFFFFF" d="M40.134,17.498c0,5.507,3.024,7.703,6.587,7.703c2.52,0,3.815-0.504,4.787-0.972l0.432,1.332
			c-0.648,0.359-2.412,1.115-5.436,1.115c-4.967,0-8.063-3.6-8.063-8.674c0-5.759,3.312-9.359,7.775-9.359
			c5.651,0,6.731,5.327,6.731,7.811c0,0.468,0,0.72-0.072,1.044H40.134z M51.148,16.13c0.036-2.412-0.972-6.047-5.147-6.047
			c-3.815,0-5.435,3.383-5.759,6.047H51.148z"/>
		<path fill="#FFFFFF" d="M79.155,25.452c-1.224,0.612-3.563,1.224-6.551,1.224c-5.867,0-11.482-3.743-11.482-12.346
			c0-7.199,4.643-12.635,12.31-12.635c3.096,0,4.896,0.684,5.616,1.044l-0.54,1.44c-1.224-0.612-2.988-1.044-5.04-1.044
			c-6.551,0-10.546,4.248-10.546,11.23c0,6.587,3.743,10.834,10.258,10.834c2.052,0,4.068-0.432,5.472-1.116L79.155,25.452z"/>
		<path fill="#FFFFFF" d="M81.209,14.222c0-1.728-0.036-3.492-0.144-5.184h1.583l0.072,3.492h0.108
			c0.756-2.196,2.556-3.888,4.896-3.888c0.252,0,0.504,0.036,0.72,0.072v1.62c-0.252-0.036-0.504-0.036-0.828-0.036
			c-2.375,0-4.067,2.052-4.535,4.823c-0.108,0.504-0.144,1.08-0.144,1.656v9.539h-1.728V14.222z"/>
		<path fill="#FFFFFF" d="M100.647,22.213c0,1.367,0.036,2.771,0.252,4.104h-1.583l-0.252-2.484h-0.072
			c-0.864,1.332-2.771,2.88-5.543,2.88c-3.491,0-5.075-2.447-5.075-4.751c0-3.996,3.492-6.407,10.547-6.335v-0.468
			c0-1.692-0.324-5.111-4.428-5.075c-1.512,0-3.096,0.396-4.355,1.296l-0.54-1.26c1.584-1.044,3.528-1.476,5.076-1.476
			c5.003,0,5.975,3.744,5.975,6.803V22.213z M98.92,17.065c-3.78-0.108-8.747,0.468-8.747,4.607c0,2.483,1.656,3.6,3.456,3.6
			c2.879,0,4.536-1.764,5.111-3.456c0.144-0.359,0.18-0.756,0.18-1.044V17.065z"/>
		<path fill="#FFFFFF" d="M104.356,26.316V10.442h-2.483V9.039h2.483V8.103c0-2.664,0.504-4.823,1.908-6.227
			c1.08-1.044,2.484-1.512,3.852-1.512c1.116,0,2.052,0.288,2.592,0.612l-0.54,1.296c-0.504-0.252-1.152-0.468-2.196-0.468
			c-3.239,0-3.887,2.951-3.887,6.263v0.972h4.607v1.404h-4.607v15.874H104.356z"/>
		<path fill="#FFFFFF" d="M116.56,5.223v3.815h4.931v1.404h-4.931v11.23c0,2.195,0.684,3.563,2.52,3.563
			c0.9,0,1.548-0.108,1.98-0.252l0.216,1.296c-0.576,0.216-1.368,0.396-2.412,0.396c-1.26,0-2.304-0.396-2.952-1.188
			c-0.792-0.9-1.08-2.376-1.08-4.14V10.442h-2.916V9.039h2.916V5.871L116.56,5.223z"/>
		<path fill="#FFFFFF" d="M123.76,9.039l4.535,11.302c0.468,1.224,0.936,2.628,1.26,3.708h0.072
			c0.359-1.044,0.792-2.412,1.332-3.815l4.211-11.195h1.836l-5.184,12.886c-2.088,5.363-3.563,8.566-5.831,10.546
			c-1.368,1.152-2.627,1.656-3.023,1.8l-0.54-1.439c0.864-0.324,1.979-0.936,3.023-1.908c0.864-0.863,2.016-2.303,2.88-4.354
			c0.144-0.36,0.216-0.576,0.216-0.756c0-0.145-0.072-0.396-0.216-0.756l-6.407-16.018H123.76z"/>
		<path fill="#FFFFFF" d="M145.683,26.316V2.056h1.62l9.431,14.326c1.98,3.023,3.384,5.291,4.571,7.631l0.072-0.036
			c-0.252-3.275-0.288-6.047-0.288-9.827V2.056h1.656v24.261h-1.584l-9.251-14.11c-1.8-2.771-3.455-5.327-4.715-7.847l-0.072,0.036
			c0.18,2.988,0.216,5.615,0.216,9.647v12.274H145.683z"/>
		<path fill="#FFFFFF" d="M177.397,22.213c0,1.367,0.035,2.771,0.252,4.104h-1.584l-0.252-2.484h-0.072
			c-0.864,1.332-2.771,2.88-5.543,2.88c-3.492,0-5.075-2.447-5.075-4.751c0-3.996,3.491-6.407,10.546-6.335v-0.468
			c0-1.692-0.323-5.111-4.427-5.075c-1.512,0-3.096,0.396-4.355,1.296l-0.54-1.26c1.584-1.044,3.527-1.476,5.075-1.476
			c5.003,0,5.976,3.744,5.976,6.803V22.213z M175.669,17.065c-3.779-0.108-8.747,0.468-8.747,4.607c0,2.483,1.656,3.6,3.456,3.6
			c2.88,0,4.535-1.764,5.111-3.456c0.144-0.359,0.18-0.756,0.18-1.044V17.065z"/>
		<path fill="#FFFFFF" d="M180.998,13.178c0-1.584-0.036-2.772-0.145-4.14h1.62l0.107,3.023h0.072
			c1.116-1.979,2.771-3.419,5.615-3.419c2.376,0,4.212,1.584,4.968,3.744h0.072c0.468-1.008,1.115-1.8,1.764-2.34
			c1.115-0.9,2.268-1.404,4.104-1.404c1.691,0,5.651,0.936,5.651,7.487v10.187h-1.729V16.273c0-3.887-1.512-6.191-4.499-6.191
			c-2.16,0-3.852,1.62-4.535,3.419c-0.145,0.504-0.288,1.08-0.288,1.728v11.086h-1.729V15.482c0-3.096-1.476-5.399-4.283-5.399
			c-2.304,0-4.14,1.872-4.787,3.887c-0.145,0.504-0.252,1.08-0.252,1.692v10.655h-1.728V13.178z"/>
		<path fill="#FFFFFF" d="M208.754,17.498c0,5.507,3.023,7.703,6.587,7.703c2.52,0,3.815-0.504,4.787-0.972l0.433,1.332
			c-0.648,0.359-2.412,1.115-5.436,1.115c-4.968,0-8.063-3.6-8.063-8.674c0-5.759,3.312-9.359,7.775-9.359
			c5.651,0,6.731,5.327,6.731,7.811c0,0.468,0,0.72-0.072,1.044H208.754z M219.769,16.13c0.035-2.412-0.973-6.047-5.147-6.047
			c-3.815,0-5.436,3.383-5.76,6.047H219.769z"/>
		<path fill="#FFFFFF" d="M223.945,14.222c0-1.728-0.036-3.492-0.145-5.184h1.584l0.072,3.492h0.107
			c0.756-2.196,2.556-3.888,4.896-3.888c0.252,0,0.504,0.036,0.72,0.072v1.62c-0.252-0.036-0.504-0.036-0.827-0.036
			c-2.376,0-4.067,2.052-4.536,4.823c-0.107,0.504-0.144,1.08-0.144,1.656v9.539h-1.728V14.222z"/>
	</g>
</g>
</svg>
