<?xml version="1.0" encoding="utf-8"?>
<!-- Generator: Adobe Illustrator 17.0.0, SVG Export Plug-In . SVG Version: 6.00 Build 0)  -->
<!DOCTYPE svg PUBLIC "-//W3C//DTD SVG 1.1//EN" "http://www.w3.org/Graphics/SVG/1.1/DTD/svg11.dtd">
<svg version="1.1" xmlns="http://www.w3.org/2000/svg" xmlns:xlink="http://www.w3.org/1999/xlink" x="0px" y="0px" width="215px"
	 height="27.75px" viewBox="0 0 215 27.75" enable-background="new 0 0 215 27.75" xml:space="preserve">
<g id="Layer_1">
</g>
<g id="Layer_2">
	<g>
		<path fill="#FFFFFF" d="M66.172,3.495h-7.919V2.056h17.566v1.439H67.9v22.821h-1.728V3.495z"/>
		<path fill="#FFFFFF" d="M75.568,14.222c0-1.728-0.036-3.492-0.144-5.184h1.583l0.072,3.492h0.108
			c0.756-2.196,2.556-3.888,4.896-3.888c0.252,0,0.504,0.036,0.72,0.072v1.62c-0.252-0.036-0.504-0.036-0.828-0.036
			c-2.375,0-4.067,2.052-4.535,4.823c-0.108,0.504-0.144,1.08-0.144,1.656v9.539h-1.728V14.222z"/>
		<path fill="#FFFFFF" d="M86.008,5.583c-0.792,0-1.332-0.684-1.332-1.476c0-0.792,0.612-1.512,1.404-1.512
			c0.792,0,1.368,0.684,1.368,1.512c0,0.792-0.54,1.476-1.404,1.476H86.008z M85.216,26.316V9.039h1.728v17.278H85.216z"/>
		<path fill="#FFFFFF" d="M91.48,13.178c0-1.584-0.036-2.772-0.144-4.14h1.62l0.108,3.023h0.072
			c1.116-1.979,2.772-3.419,5.615-3.419c2.376,0,4.212,1.584,4.968,3.744h0.072c0.468-1.008,1.116-1.8,1.764-2.34
			c1.116-0.9,2.268-1.404,4.104-1.404c1.692,0,5.652,0.936,5.652,7.487v10.187h-1.729V16.273c0-3.887-1.512-6.191-4.499-6.191
			c-2.16,0-3.852,1.62-4.536,3.419c-0.144,0.504-0.288,1.08-0.288,1.728v11.086h-1.728V15.482c0-3.096-1.476-5.399-4.284-5.399
			c-2.304,0-4.139,1.872-4.787,3.887c-0.144,0.504-0.252,1.08-0.252,1.692v10.655H91.48V13.178z"/>
		<path fill="#FFFFFF" d="M118.228,0.724h1.728v11.555h0.072c1.151-2.232,3.275-3.636,6.335-3.636c4.355,0,7.379,3.671,7.379,8.855
			c0,6.155-3.924,9.214-7.703,9.214c-2.808,0-4.823-1.151-6.191-3.491h-0.071l-0.145,3.096h-1.548
			c0.108-1.224,0.145-2.736,0.145-4.032V0.724z M119.955,19.657c0,0.396,0.036,0.828,0.144,1.26
			c0.756,2.628,2.988,4.355,5.688,4.355c3.96,0,6.228-3.24,6.228-7.739c0-3.959-2.16-7.451-6.083-7.451
			c-2.521,0-4.932,1.728-5.76,4.607c-0.107,0.432-0.216,0.9-0.216,1.512V19.657z"/>
		<path fill="#FFFFFF" d="M136.155,0.724h1.728v25.593h-1.728V0.724z"/>
		<path fill="#FFFFFF" d="M142.06,17.498c0,5.507,3.023,7.703,6.587,7.703c2.52,0,3.815-0.504,4.787-0.972l0.432,1.332
			c-0.647,0.359-2.411,1.115-5.435,1.115c-4.968,0-8.063-3.6-8.063-8.674c0-5.759,3.312-9.359,7.775-9.359
			c5.651,0,6.731,5.327,6.731,7.811c0,0.468,0,0.72-0.072,1.044H142.06z M153.074,16.13c0.035-2.412-0.973-6.047-5.147-6.047
			c-3.815,0-5.436,3.383-5.76,6.047H153.074z"/>
	</g>
</g>
</svg>
