<?xml version="1.0" encoding="utf-8"?>
<!-- Generator: Adobe Illustrator 17.0.0, SVG Export Plug-In . SVG Version: 6.00 Build 0)  -->
<!DOCTYPE svg PUBLIC "-//W3C//DTD SVG 1.1//EN" "http://www.w3.org/Graphics/SVG/1.1/DTD/svg11.dtd">
<svg version="1.1" xmlns="http://www.w3.org/2000/svg" xmlns:xlink="http://www.w3.org/1999/xlink" x="0px" y="0px" width="308.5px"
	 height="34.75px" viewBox="0 0 308.5 34.75" enable-background="new 0 0 308.5 34.75" xml:space="preserve">
<g id="Layer_1">
</g>
<g id="Layer_2">
	<g>
		<path fill="#FFFFFF" d="M9.54,26.316L1.477,2.056h1.8L7.56,15.05c1.152,3.527,2.16,6.587,2.844,9.286h0.108
			c0.72-2.735,1.836-5.867,3.096-9.286l4.715-12.994h1.836l-8.999,24.261H9.54z"/>
		<path fill="#FFFFFF" d="M21.924,5.583c-0.792,0-1.332-0.684-1.332-1.476c0-0.792,0.612-1.512,1.404-1.512
			c0.792,0,1.368,0.684,1.368,1.512c0,0.792-0.54,1.476-1.404,1.476H21.924z M21.132,26.316V9.039h1.728v17.278H21.132z"/>
		<path fill="#FFFFFF" d="M26.676,24.049c0.936,0.575,2.34,1.188,3.887,1.188c2.736,0,4.032-1.476,4.032-3.275
			c0-1.908-1.152-2.916-3.636-3.923c-2.843-1.08-4.391-2.628-4.391-4.715c0-2.52,1.979-4.68,5.327-4.68
			c1.584,0,2.952,0.468,3.815,1.08l-0.648,1.404c-0.612-0.432-1.728-1.044-3.456-1.044c-2.196,0-3.348,1.404-3.348,2.987
			c0,1.8,1.224,2.556,3.564,3.528c2.808,1.116,4.463,2.52,4.463,5.147c0,2.951-2.304,4.931-5.832,4.931
			c-1.656,0-3.239-0.468-4.391-1.188L26.676,24.049z"/>
		<path fill="#FFFFFF" d="M52.882,22.104c0,1.512,0.036,2.88,0.144,4.212h-1.62l-0.108-3.096h-0.072
			c-0.864,1.62-2.844,3.491-5.903,3.491c-2.196,0-5.903-1.115-5.903-7.63V9.039h1.728v9.719c0,3.744,1.152,6.443,4.571,6.443
			c2.52,0,4.355-1.764,5.111-3.491c0.18-0.54,0.324-1.224,0.324-1.908V9.039h1.728V22.104z"/>
		<path fill="#FFFFFF" d="M68.182,22.213c0,1.367,0.036,2.771,0.252,4.104h-1.583l-0.252-2.484h-0.072
			c-0.864,1.332-2.771,2.88-5.543,2.88c-3.491,0-5.075-2.447-5.075-4.751c0-3.996,3.492-6.407,10.547-6.335v-0.468
			c0-1.692-0.324-5.111-4.428-5.075c-1.512,0-3.096,0.396-4.355,1.296l-0.54-1.26c1.584-1.044,3.528-1.476,5.076-1.476
			c5.003,0,5.975,3.744,5.975,6.803V22.213z M66.455,17.065c-3.78-0.108-8.747,0.468-8.747,4.607c0,2.483,1.656,3.6,3.456,3.6
			c2.879,0,4.536-1.764,5.111-3.456c0.144-0.359,0.18-0.756,0.18-1.044V17.065z"/>
		<path fill="#FFFFFF" d="M72.503,0.724h1.728v25.593h-1.728V0.724z"/>
		<path fill="#FFFFFF" d="M85.499,2.416c1.872-0.324,3.924-0.54,6.228-0.54c4.427,0,7.775,1.188,9.791,3.312
			c1.944,2.016,3.023,4.751,3.023,8.423c0,3.563-0.972,6.767-3.167,9.179c-2.124,2.339-5.795,3.707-10.475,3.707
			c-1.872,0-3.636-0.036-5.399-0.18V2.416z M87.227,24.876c0.972,0.145,2.375,0.181,3.923,0.181c7.775,0,11.626-4.355,11.626-11.375
			c0.072-6.155-3.348-10.367-11.159-10.367c-1.872,0-3.347,0.18-4.391,0.396V24.876z"/>
		<path fill="#FFFFFF" d="M107.998,17.498c0,5.507,3.024,7.703,6.587,7.703c2.52,0,3.815-0.504,4.787-0.972l0.432,1.332
			c-0.648,0.359-2.412,1.115-5.436,1.115c-4.967,0-8.063-3.6-8.063-8.674c0-5.759,3.312-9.359,7.775-9.359
			c5.651,0,6.731,5.327,6.731,7.811c0,0.468,0,0.72-0.072,1.044H107.998z M119.013,16.13c0.036-2.412-0.972-6.047-5.147-6.047
			c-3.815,0-5.435,3.383-5.759,6.047H119.013z"/>
		<path fill="#FFFFFF" d="M123.226,24.049c0.936,0.575,2.34,1.188,3.887,1.188c2.736,0,4.032-1.476,4.032-3.275
			c0-1.908-1.152-2.916-3.636-3.923c-2.843-1.08-4.391-2.628-4.391-4.715c0-2.52,1.979-4.68,5.327-4.68
			c1.584,0,2.952,0.468,3.815,1.08l-0.648,1.404c-0.612-0.432-1.728-1.044-3.456-1.044c-2.196,0-3.348,1.404-3.348,2.987
			c0,1.8,1.224,2.556,3.564,3.528c2.808,1.116,4.463,2.52,4.463,5.147c0,2.951-2.304,4.931-5.832,4.931
			c-1.656,0-3.239-0.468-4.391-1.188L123.226,24.049z"/>
		<path fill="#FFFFFF" d="M136.905,5.583c-0.792,0-1.332-0.684-1.332-1.476c0-0.792,0.612-1.512,1.404-1.512
			c0.792,0,1.368,0.684,1.368,1.512c0,0.792-0.54,1.476-1.404,1.476H136.905z M136.113,26.316V9.039h1.728v17.278H136.113z"/>
		<path fill="#FFFFFF" d="M156.163,23.797c0,4.427-0.936,6.622-2.375,7.99c-1.584,1.512-3.923,2.052-5.867,2.052
			c-1.98,0-4.175-0.504-5.507-1.512l0.612-1.368c1.224,0.792,2.916,1.44,5.147,1.44c3.636,0,6.263-1.872,6.263-6.983v-2.447h-0.072
			c-0.9,1.764-2.916,3.348-6.011,3.348c-4.355,0-7.416-3.779-7.416-8.495c0-6.011,3.96-9.179,7.775-9.179
			c3.419,0,5.111,1.872,5.831,3.312h0.072l0.108-2.916h1.583c-0.108,1.296-0.144,2.664-0.144,4.463V23.797z M154.436,15.698
			c0-0.648-0.036-1.188-0.216-1.692c-0.72-2.052-2.52-3.923-5.363-3.923c-3.672,0-6.191,2.987-6.191,7.559
			c0,3.887,2.052,7.234,6.119,7.234c2.304,0,4.463-1.439,5.363-3.887c0.18-0.576,0.288-1.225,0.288-1.836V15.698z"/>
		<path fill="#FFFFFF" d="M160.413,13.178c0-1.584-0.036-2.772-0.144-4.14h1.62l0.107,3.096h0.072
			c0.936-1.944,3.132-3.492,5.939-3.492c1.655,0,6.047,0.828,6.047,7.307v10.367h-1.728V16.094c0-3.167-1.224-6.011-4.787-6.011
			c-2.412,0-4.5,1.728-5.184,3.996c-0.108,0.396-0.216,0.972-0.216,1.512v10.727h-1.728V13.178z"/>
		<path fill="#FFFFFF" d="M196.483,14.258h-9.683v10.618h10.835v1.44h-12.562V2.056h11.986v1.439h-10.259v9.323h9.683V14.258z"/>
		<path fill="#FFFFFF" d="M200.372,9.039l2.952,4.211c0.756,1.008,1.332,1.908,1.979,2.952h0.072
			c0.647-1.044,1.332-1.979,2.016-2.952l2.952-4.211h1.907l-6.011,8.423l6.227,8.855h-1.979l-3.06-4.355
			c-0.792-1.116-1.439-2.16-2.16-3.24h-0.071c-0.648,1.116-1.332,2.051-2.16,3.24l-3.023,4.355h-1.944l6.336-8.819l-5.976-8.459
			H200.372z"/>
		<path fill="#FFFFFF" d="M225.534,22.213c0,1.367,0.035,2.771,0.252,4.104h-1.584l-0.252-2.484h-0.072
			c-0.864,1.332-2.771,2.88-5.543,2.88c-3.492,0-5.075-2.447-5.075-4.751c0-3.996,3.491-6.407,10.546-6.335v-0.468
			c0-1.692-0.323-5.111-4.427-5.075c-1.512,0-3.096,0.396-4.355,1.296l-0.54-1.26c1.584-1.044,3.527-1.476,5.075-1.476
			c5.003,0,5.976,3.744,5.976,6.803V22.213z M223.806,17.065c-3.779-0.108-8.747,0.468-8.747,4.607c0,2.483,1.656,3.6,3.456,3.6
			c2.88,0,4.535-1.764,5.111-3.456c0.144-0.359,0.18-0.756,0.18-1.044V17.065z"/>
		<path fill="#FFFFFF" d="M229.855,13.178c0-1.584-0.036-2.772-0.145-4.14h1.62l0.107,3.023h0.072
			c1.116-1.979,2.771-3.419,5.615-3.419c2.376,0,4.212,1.584,4.968,3.744h0.072c0.468-1.008,1.115-1.8,1.764-2.34
			c1.115-0.9,2.268-1.404,4.104-1.404c1.691,0,5.651,0.936,5.651,7.487v10.187h-1.729V16.273c0-3.887-1.512-6.191-4.499-6.191
			c-2.16,0-3.852,1.62-4.535,3.419c-0.145,0.504-0.288,1.08-0.288,1.728v11.086h-1.729V15.482c0-3.096-1.476-5.399-4.283-5.399
			c-2.304,0-4.14,1.872-4.787,3.887c-0.145,0.504-0.252,1.08-0.252,1.692v10.655h-1.728V13.178z"/>
		<path fill="#FFFFFF" d="M258.043,14.546c0-2.16-0.036-3.852-0.145-5.507h1.656l0.107,3.275h0.072
			c1.26-2.268,3.384-3.671,6.407-3.671c4.428,0,7.415,3.671,7.415,8.747c0,6.155-3.672,9.322-7.847,9.322
			c-2.483,0-4.68-1.115-5.867-3.203h-0.072v9.935h-1.728V14.546z M259.771,19.513c0,0.467,0.036,0.936,0.144,1.368
			c0.721,2.664,3.024,4.392,5.688,4.392c3.96,0,6.228-3.204,6.228-7.811c0-3.887-2.16-7.379-6.083-7.379
			c-2.52,0-4.968,1.728-5.724,4.571c-0.108,0.468-0.252,1.008-0.252,1.476V19.513z"/>
		<path fill="#FFFFFF" d="M276.69,0.724h1.728v25.593h-1.728V0.724z"/>
		<path fill="#FFFFFF" d="M283.314,17.498c0,5.507,3.023,7.703,6.587,7.703c2.52,0,3.815-0.504,4.787-0.972l0.433,1.332
			c-0.648,0.359-2.412,1.115-5.436,1.115c-4.968,0-8.063-3.6-8.063-8.674c0-5.759,3.312-9.359,7.775-9.359
			c5.651,0,6.731,5.327,6.731,7.811c0,0.468,0,0.72-0.072,1.044H283.314z M294.329,16.13c0.035-2.412-0.973-6.047-5.147-6.047
			c-3.815,0-5.436,3.383-5.76,6.047H294.329z"/>
		<path fill="#FFFFFF" d="M298.541,24.049c0.937,0.575,2.34,1.188,3.888,1.188c2.736,0,4.031-1.476,4.031-3.275
			c0-1.908-1.151-2.916-3.635-3.923c-2.844-1.08-4.392-2.628-4.392-4.715c0-2.52,1.979-4.68,5.327-4.68
			c1.584,0,2.952,0.468,3.815,1.08l-0.647,1.404c-0.612-0.432-1.729-1.044-3.456-1.044c-2.195,0-3.348,1.404-3.348,2.987
			c0,1.8,1.224,2.556,3.563,3.528c2.808,1.116,4.464,2.52,4.464,5.147c0,2.951-2.304,4.931-5.831,4.931
			c-1.656,0-3.24-0.468-4.392-1.188L298.541,24.049z"/>
	</g>
</g>
</svg>
